<?xml version="1.0" encoding="UTF-8" standalone="no"?>
<!DOCTYPE svg PUBLIC "-//W3C//DTD SVG 1.1//EN"
 "http://www.w3.org/Graphics/SVG/1.1/DTD/svg11.dtd">
<!-- Generated by graphviz version 2.30.0 (20130222.0013)
 -->
<!-- Title: %3 Pages: 1 -->
<svg width="976pt" height="692pt"
 viewBox="0.00 0.00 976.00 692.00" xmlns="http://www.w3.org/2000/svg" xmlns:xlink="http://www.w3.org/1999/xlink">
<g id="graph0" class="graph" transform="scale(1 1) rotate(0) translate(4 688)">
<title>%3</title>
<polygon fill="white" stroke="white" points="-4,5 -4,-688 973,-688 973,5 -4,5"/>
<!-- 0 -->
<g id="node1" class="node"><title>0</title>
<path fill="none" stroke="black" d="M59,-345C59,-345 15,-345 15,-345 9,-345 3,-339 3,-333 3,-333 3,-321 3,-321 3,-315 9,-309 15,-309 15,-309 59,-309 59,-309 65,-309 71,-315 71,-321 71,-321 71,-333 71,-333 71,-339 65,-345 59,-345"/>
<text text-anchor="middle" x="37" y="-323.3" font-family="Times,serif" font-size="14.00">Álgebra I</text>
</g>
<!-- 2 -->
<g id="node3" class="node"><title>2</title>
<path fill="none" stroke="black" d="M196,-353.5C196,-353.5 132,-353.5 132,-353.5 126,-353.5 120,-347.5 120,-341.5 120,-341.5 120,-312.5 120,-312.5 120,-306.5 126,-300.5 132,-300.5 132,-300.5 196,-300.5 196,-300.5 202,-300.5 208,-306.5 208,-312.5 208,-312.5 208,-341.5 208,-341.5 208,-347.5 202,-353.5 196,-353.5"/>
<text text-anchor="middle" x="164" y="-338.3" font-family="Times,serif" font-size="14.00">Algoritmos</text>
<text text-anchor="middle" x="164" y="-323.3" font-family="Times,serif" font-size="14.00">y Estructuras</text>
<text text-anchor="middle" x="164" y="-308.3" font-family="Times,serif" font-size="14.00">de Datos I</text>
</g>
<!-- 0&#45;&gt;2 -->
<g id="edge1" class="edge"><title>0&#45;&gt;2</title>
<path fill="none" stroke="black" d="M71.1695,-327C82.9262,-327 96.4736,-327 109.49,-327"/>
<polygon fill="black" stroke="black" points="109.77,-330.5 119.77,-327 109.77,-323.5 109.77,-330.5"/>
</g>
<!-- 1 -->
<g id="node2" class="node"><title>1</title>
<path fill="none" stroke="black" d="M62,-135C62,-135 12,-135 12,-135 6,-135 0,-129 0,-123 0,-123 0,-111 0,-111 0,-105 6,-99 12,-99 12,-99 62,-99 62,-99 68,-99 74,-105 74,-111 74,-111 74,-123 74,-123 74,-129 68,-135 62,-135"/>
<text text-anchor="middle" x="37" y="-113.3" font-family="Times,serif" font-size="14.00">Análisis II</text>
</g>
<!-- 4 -->
<g id="node5" class="node"><title>4</title>
<path fill="none" stroke="black" d="M195,-108C195,-108 133,-108 133,-108 127,-108 121,-102 121,-96 121,-96 121,-82 121,-82 121,-76 127,-70 133,-70 133,-70 195,-70 195,-70 201,-70 207,-76 207,-82 207,-82 207,-96 207,-96 207,-102 201,-108 195,-108"/>
<text text-anchor="middle" x="164" y="-92.8" font-family="Times,serif" font-size="14.00">Probabilidad</text>
<text text-anchor="middle" x="164" y="-77.8" font-family="Times,serif" font-size="14.00">y Estadistica</text>
</g>
<!-- 1&#45;&gt;4 -->
<g id="edge3" class="edge"><title>1&#45;&gt;4</title>
<path fill="none" stroke="black" d="M74.1552,-108.901C85.6479,-106.327 98.5953,-103.427 110.978,-100.653"/>
<polygon fill="black" stroke="black" points="111.756,-104.066 120.749,-98.4643 110.226,-97.2348 111.756,-104.066"/>
</g>
<!-- 5 -->
<g id="node6" class="node"><title>5</title>
<path fill="none" stroke="black" d="M205.5,-164C205.5,-164 122.5,-164 122.5,-164 116.5,-164 110.5,-158 110.5,-152 110.5,-152 110.5,-138 110.5,-138 110.5,-132 116.5,-126 122.5,-126 122.5,-126 205.5,-126 205.5,-126 211.5,-126 217.5,-132 217.5,-138 217.5,-138 217.5,-152 217.5,-152 217.5,-158 211.5,-164 205.5,-164"/>
<text text-anchor="middle" x="164" y="-148.8" font-family="Times,serif" font-size="14.00">Teoría de las</text>
<text text-anchor="middle" x="164" y="-133.8" font-family="Times,serif" font-size="14.00">Comunicaciones</text>
</g>
<!-- 1&#45;&gt;5 -->
<g id="edge4" class="edge"><title>1&#45;&gt;5</title>
<path fill="none" stroke="black" d="M74.1552,-125.099C82.3277,-126.929 91.2359,-128.925 100.153,-130.922"/>
<polygon fill="black" stroke="black" points="99.6637,-134.399 110.187,-133.17 101.194,-127.569 99.6637,-134.399"/>
</g>
<!-- 3 -->
<g id="node4" class="node"><title>3</title>
<path fill="none" stroke="black" d="M373,-162C373,-162 269,-162 269,-162 263,-162 257,-156 257,-150 257,-150 257,-138 257,-138 257,-132 263,-126 269,-126 269,-126 373,-126 373,-126 379,-126 385,-132 385,-138 385,-138 385,-150 385,-150 385,-156 379,-162 373,-162"/>
<text text-anchor="middle" x="321" y="-140.3" font-family="Times,serif" font-size="14.00">Métodos Númericos</text>
</g>
<!-- 2&#45;&gt;3 -->
<g id="edge2" class="edge"><title>2&#45;&gt;3</title>
<path fill="none" stroke="black" d="M187.538,-300.39C217.154,-265.425 268.831,-204.413 298.117,-169.837"/>
<polygon fill="black" stroke="black" points="300.913,-171.95 304.705,-162.057 295.572,-167.426 300.913,-171.95"/>
</g>
<!-- 6 -->
<g id="node7" class="node"><title>6</title>
<path fill="none" stroke="black" d="M354,-472.5C354,-472.5 288,-472.5 288,-472.5 282,-472.5 276,-466.5 276,-460.5 276,-460.5 276,-431.5 276,-431.5 276,-425.5 282,-419.5 288,-419.5 288,-419.5 354,-419.5 354,-419.5 360,-419.5 366,-425.5 366,-431.5 366,-431.5 366,-460.5 366,-460.5 366,-466.5 360,-472.5 354,-472.5"/>
<text text-anchor="middle" x="321" y="-457.3" font-family="Times,serif" font-size="14.00">Algoritmos</text>
<text text-anchor="middle" x="321" y="-442.3" font-family="Times,serif" font-size="14.00">y Estructudas</text>
<text text-anchor="middle" x="321" y="-427.3" font-family="Times,serif" font-size="14.00">de Datos II</text>
</g>
<!-- 2&#45;&gt;6 -->
<g id="edge6" class="edge"><title>2&#45;&gt;6</title>
<path fill="none" stroke="black" d="M199.4,-353.41C222.477,-371.127 253.03,-394.585 277.61,-413.455"/>
<polygon fill="black" stroke="black" points="275.633,-416.35 285.697,-419.664 279.896,-410.798 275.633,-416.35"/>
</g>
<!-- 7 -->
<g id="node8" class="node"><title>7</title>
<path fill="none" stroke="black" d="M365.5,-346C365.5,-346 276.5,-346 276.5,-346 270.5,-346 264.5,-340 264.5,-334 264.5,-334 264.5,-320 264.5,-320 264.5,-314 270.5,-308 276.5,-308 276.5,-308 365.5,-308 365.5,-308 371.5,-308 377.5,-314 377.5,-320 377.5,-320 377.5,-334 377.5,-334 377.5,-340 371.5,-346 365.5,-346"/>
<text text-anchor="middle" x="321" y="-330.8" font-family="Times,serif" font-size="14.00">Organización</text>
<text text-anchor="middle" x="321" y="-315.8" font-family="Times,serif" font-size="14.00">del Computador I</text>
</g>
<!-- 2&#45;&gt;7 -->
<g id="edge7" class="edge"><title>2&#45;&gt;7</title>
<path fill="none" stroke="black" d="M208.176,-327C222.431,-327 238.628,-327 254.183,-327"/>
<polygon fill="black" stroke="black" points="254.284,-330.5 264.284,-327 254.284,-323.5 254.284,-330.5"/>
</g>
<!-- 19 -->
<g id="node20" class="node"><title>19</title>
<path fill="none" stroke="#000080" d="M533,-234.5C533,-234.5 471,-234.5 471,-234.5 465,-234.5 459,-228.5 459,-222.5 459,-222.5 459,-193.5 459,-193.5 459,-187.5 465,-181.5 471,-181.5 471,-181.5 533,-181.5 533,-181.5 539,-181.5 545,-187.5 545,-193.5 545,-193.5 545,-222.5 545,-222.5 545,-228.5 539,-234.5 533,-234.5"/>
<text text-anchor="middle" x="502" y="-219.3" font-family="Times,serif" font-size="14.00" fill="#000080">Compresión</text>
<text text-anchor="middle" x="502" y="-204.3" font-family="Times,serif" font-size="14.00" fill="#000080">de Imágenes</text>
<text text-anchor="middle" x="502" y="-189.3" font-family="Times,serif" font-size="14.00" fill="#000080">Digitales (3)</text>
</g>
<!-- 3&#45;&gt;19 -->
<g id="edge22" class="edge"><title>3&#45;&gt;19</title>
<path fill="none" stroke="#000080" d="M372.815,-162.169C396.707,-170.711 425.153,-180.882 449.172,-189.469"/>
<polygon fill="#000080" stroke="#000080" points="448.229,-192.849 458.824,-192.92 450.586,-186.258 448.229,-192.849"/>
</g>
<!-- 23 -->
<g id="node24" class="node"><title>23</title>
<path fill="none" stroke="#000080" d="M553,-163C553,-163 451,-163 451,-163 445,-163 439,-157 439,-151 439,-151 439,-137 439,-137 439,-131 445,-125 451,-125 451,-125 553,-125 553,-125 559,-125 565,-131 565,-137 565,-137 565,-151 565,-151 565,-157 559,-163 553,-163"/>
<text text-anchor="middle" x="502" y="-147.8" font-family="Times,serif" font-size="14.00" fill="#000080">Introducción de</text>
<text text-anchor="middle" x="502" y="-132.8" font-family="Times,serif" font-size="14.00" fill="#000080">la Fotografía 3D (1)</text>
</g>
<!-- 3&#45;&gt;23 -->
<g id="edge26" class="edge"><title>3&#45;&gt;23</title>
<path fill="none" stroke="#000080" d="M385.109,-144C399.121,-144 414.081,-144 428.438,-144"/>
<polygon fill="#000080" stroke="#000080" points="428.763,-147.5 438.763,-144 428.762,-140.5 428.763,-147.5"/>
</g>
<!-- 29 -->
<g id="node30" class="node"><title>29</title>
<path fill="none" stroke="#000080" d="M560.5,-107C560.5,-107 443.5,-107 443.5,-107 437.5,-107 431.5,-101 431.5,-95 431.5,-95 431.5,-83 431.5,-83 431.5,-77 437.5,-71 443.5,-71 443.5,-71 560.5,-71 560.5,-71 566.5,-71 572.5,-77 572.5,-83 572.5,-83 572.5,-95 572.5,-95 572.5,-101 566.5,-107 560.5,-107"/>
<text text-anchor="middle" x="502" y="-85.3" font-family="Times,serif" font-size="14.00" fill="#000080">Visión en Robótica (3)</text>
</g>
<!-- 3&#45;&gt;29 -->
<g id="edge32" class="edge"><title>3&#45;&gt;29</title>
<path fill="none" stroke="#000080" d="M380.611,-125.991C397.146,-120.91 415.285,-115.337 432.352,-110.093"/>
<polygon fill="#000080" stroke="#000080" points="433.726,-113.332 442.257,-107.05 431.67,-106.641 433.726,-113.332"/>
</g>
<!-- 4&#45;&gt;3 -->
<g id="edge5" class="edge"><title>4&#45;&gt;3</title>
<path fill="none" stroke="black" d="M207.354,-104.029C223.463,-109.745 242.142,-116.373 259.603,-122.569"/>
<polygon fill="black" stroke="black" points="258.559,-125.912 269.153,-125.958 260.899,-119.315 258.559,-125.912"/>
</g>
<!-- 27 -->
<g id="node28" class="node"><title>27</title>
<path fill="none" stroke="#000080" d="M376,-53C376,-53 266,-53 266,-53 260,-53 254,-47 254,-41 254,-41 254,-29 254,-29 254,-23 260,-17 266,-17 266,-17 376,-17 376,-17 382,-17 388,-23 388,-29 388,-29 388,-41 388,-41 388,-47 382,-53 376,-53"/>
<text text-anchor="middle" x="321" y="-31.3" font-family="Times,serif" font-size="14.00" fill="#000080">Redes Neuronales (3)</text>
</g>
<!-- 4&#45;&gt;27 -->
<g id="edge30" class="edge"><title>4&#45;&gt;27</title>
<path fill="none" stroke="#000080" d="M207.354,-74.2443C223.089,-68.7624 241.277,-62.4262 258.385,-56.4659"/>
<polygon fill="#000080" stroke="#000080" points="260.015,-59.6045 268.306,-53.0094 257.712,-52.9942 260.015,-59.6045"/>
</g>
<!-- 4&#45;&gt;29 -->
<g id="edge33" class="edge"><title>4&#45;&gt;29</title>
<path fill="none" stroke="#000080" d="M207.214,-89C260.694,-89 353.966,-89 421.084,-89"/>
<polygon fill="#000080" stroke="#000080" points="421.205,-92.5001 431.204,-89 421.204,-85.5001 421.205,-92.5001"/>
</g>
<!-- 8 -->
<g id="node9" class="node"><title>8</title>
<path fill="none" stroke="black" d="M568,-345C568,-345 436,-345 436,-345 430,-345 424,-339 424,-333 424,-333 424,-321 424,-321 424,-315 430,-309 436,-309 436,-309 568,-309 568,-309 574,-309 580,-315 580,-321 580,-321 580,-333 580,-333 580,-339 574,-345 568,-345"/>
<text text-anchor="middle" x="502" y="-323.3" font-family="Times,serif" font-size="14.00">Lógica y Computabilidad</text>
</g>
<!-- 6&#45;&gt;8 -->
<g id="edge8" class="edge"><title>6&#45;&gt;8</title>
<path fill="none" stroke="black" d="M345.728,-419.481C365.093,-399.193 394.058,-371.768 424,-354 426.655,-352.424 429.417,-350.921 432.247,-349.489"/>
<polygon fill="black" stroke="black" points="433.907,-352.577 441.474,-345.16 430.934,-346.239 433.907,-352.577"/>
</g>
<!-- 9 -->
<g id="node10" class="node"><title>9</title>
<path fill="none" stroke="black" d="M534,-609.5C534,-609.5 470,-609.5 470,-609.5 464,-609.5 458,-603.5 458,-597.5 458,-597.5 458,-568.5 458,-568.5 458,-562.5 464,-556.5 470,-556.5 470,-556.5 534,-556.5 534,-556.5 540,-556.5 546,-562.5 546,-568.5 546,-568.5 546,-597.5 546,-597.5 546,-603.5 540,-609.5 534,-609.5"/>
<text text-anchor="middle" x="502" y="-594.3" font-family="Times,serif" font-size="14.00">Algoritmos</text>
<text text-anchor="middle" x="502" y="-579.3" font-family="Times,serif" font-size="14.00">y Estructuras</text>
<text text-anchor="middle" x="502" y="-564.3" font-family="Times,serif" font-size="14.00">de Datos III</text>
</g>
<!-- 6&#45;&gt;9 -->
<g id="edge9" class="edge"><title>6&#45;&gt;9</title>
<path fill="none" stroke="black" d="M356.513,-472.415C385.61,-494.685 427.366,-526.643 458.513,-550.482"/>
<polygon fill="black" stroke="black" points="456.525,-553.368 466.593,-556.666 460.779,-547.809 456.525,-553.368"/>
</g>
<!-- 10 -->
<g id="node11" class="node"><title>10</title>
<path fill="none" stroke="black" d="M741,-518C741,-518 637,-518 637,-518 631,-518 625,-512 625,-506 625,-506 625,-494 625,-494 625,-488 631,-482 637,-482 637,-482 741,-482 741,-482 747,-482 753,-488 753,-494 753,-494 753,-506 753,-506 753,-512 747,-518 741,-518"/>
<text text-anchor="middle" x="689" y="-496.3" font-family="Times,serif" font-size="14.00">Sistemas Operativos</text>
</g>
<!-- 6&#45;&gt;10 -->
<g id="edge10" class="edge"><title>6&#45;&gt;10</title>
<path fill="none" stroke="black" d="M366.243,-463.974C383.922,-470.415 404.647,-477.053 424,-481 487.66,-493.984 561.53,-498.421 614.913,-499.792"/>
<polygon fill="black" stroke="black" points="614.894,-503.293 624.971,-500.021 615.053,-496.295 614.894,-503.293"/>
</g>
<!-- 25 -->
<g id="node26" class="node"><title>25</title>
<path fill="none" stroke="#000080" d="M536.5,-472.5C536.5,-472.5 467.5,-472.5 467.5,-472.5 461.5,-472.5 455.5,-466.5 455.5,-460.5 455.5,-460.5 455.5,-431.5 455.5,-431.5 455.5,-425.5 461.5,-419.5 467.5,-419.5 467.5,-419.5 536.5,-419.5 536.5,-419.5 542.5,-419.5 548.5,-425.5 548.5,-431.5 548.5,-431.5 548.5,-460.5 548.5,-460.5 548.5,-466.5 542.5,-472.5 536.5,-472.5"/>
<text text-anchor="middle" x="502" y="-457.3" font-family="Times,serif" font-size="14.00" fill="#000080">Programación</text>
<text text-anchor="middle" x="502" y="-442.3" font-family="Times,serif" font-size="14.00" fill="#000080">Orientada</text>
<text text-anchor="middle" x="502" y="-427.3" font-family="Times,serif" font-size="14.00" fill="#000080">a Objetos (3)</text>
</g>
<!-- 6&#45;&gt;25 -->
<g id="edge28" class="edge"><title>6&#45;&gt;25</title>
<path fill="none" stroke="#000080" d="M366.247,-446C390.087,-446 419.741,-446 445.156,-446"/>
<polygon fill="#000080" stroke="#000080" points="445.393,-449.5 455.393,-446 445.393,-442.5 445.393,-449.5"/>
</g>
<!-- 11 -->
<g id="node12" class="node"><title>11</title>
<path fill="none" stroke="black" d="M549,-401C549,-401 455,-401 455,-401 449,-401 443,-395 443,-389 443,-389 443,-375 443,-375 443,-369 449,-363 455,-363 455,-363 549,-363 549,-363 555,-363 561,-369 561,-375 561,-375 561,-389 561,-389 561,-395 555,-401 549,-401"/>
<text text-anchor="middle" x="502" y="-385.8" font-family="Times,serif" font-size="14.00">Organización</text>
<text text-anchor="middle" x="502" y="-370.8" font-family="Times,serif" font-size="14.00">del Computador II</text>
</g>
<!-- 7&#45;&gt;11 -->
<g id="edge11" class="edge"><title>7&#45;&gt;11</title>
<path fill="none" stroke="black" d="M377.656,-344.101C395.228,-349.5 414.842,-355.527 433.167,-361.158"/>
<polygon fill="black" stroke="black" points="432.316,-364.557 442.903,-364.149 434.372,-357.866 432.316,-364.557"/>
</g>
<!-- 20 -->
<g id="node21" class="node"><title>20</title>
<path fill="none" stroke="#000080" d="M552,-291C552,-291 452,-291 452,-291 446,-291 440,-285 440,-279 440,-279 440,-265 440,-265 440,-259 446,-253 452,-253 452,-253 552,-253 552,-253 558,-253 564,-259 564,-265 564,-265 564,-279 564,-279 564,-285 558,-291 552,-291"/>
<text text-anchor="middle" x="502" y="-275.8" font-family="Times,serif" font-size="14.00" fill="#000080">Diseño de Sistemas</text>
<text text-anchor="middle" x="502" y="-260.8" font-family="Times,serif" font-size="14.00" fill="#000080">con FPGA (3)</text>
</g>
<!-- 7&#45;&gt;20 -->
<g id="edge23" class="edge"><title>7&#45;&gt;20</title>
<path fill="none" stroke="#000080" d="M377.656,-309.899C394.281,-304.791 412.735,-299.121 430.194,-293.756"/>
<polygon fill="#000080" stroke="#000080" points="431.243,-297.095 439.774,-290.812 429.187,-290.404 431.243,-297.095"/>
</g>
<!-- 12 -->
<g id="node13" class="node"><title>12</title>
<path fill="none" stroke="black" d="M741,-464C741,-464 637,-464 637,-464 631,-464 625,-458 625,-452 625,-452 625,-440 625,-440 625,-434 631,-428 637,-428 637,-428 741,-428 741,-428 747,-428 753,-434 753,-440 753,-440 753,-452 753,-452 753,-458 747,-464 741,-464"/>
<text text-anchor="middle" x="689" y="-442.3" font-family="Times,serif" font-size="14.00">Teoría de Lenguajes</text>
</g>
<!-- 8&#45;&gt;12 -->
<g id="edge13" class="edge"><title>8&#45;&gt;12</title>
<path fill="none" stroke="black" d="M566.846,-345.048C571.539,-347.651 575.995,-350.619 580,-354 605.234,-375.303 590.997,-397.427 616,-419 617.32,-420.139 618.693,-421.232 620.11,-422.281"/>
<polygon fill="black" stroke="black" points="618.35,-425.311 628.644,-427.818 622.16,-419.439 618.35,-425.311"/>
</g>
<!-- 13 -->
<g id="node14" class="node"><title>13</title>
<path fill="none" stroke="black" d="M732,-154.5C732,-154.5 646,-154.5 646,-154.5 640,-154.5 634,-148.5 634,-142.5 634,-142.5 634,-113.5 634,-113.5 634,-107.5 640,-101.5 646,-101.5 646,-101.5 732,-101.5 732,-101.5 738,-101.5 744,-107.5 744,-113.5 744,-113.5 744,-142.5 744,-142.5 744,-148.5 738,-154.5 732,-154.5"/>
<text text-anchor="middle" x="689" y="-139.3" font-family="Times,serif" font-size="14.00">Paradigmas</text>
<text text-anchor="middle" x="689" y="-124.3" font-family="Times,serif" font-size="14.00">de los Lenguajes</text>
<text text-anchor="middle" x="689" y="-109.3" font-family="Times,serif" font-size="14.00">de Programación</text>
</g>
<!-- 8&#45;&gt;13 -->
<g id="edge14" class="edge"><title>8&#45;&gt;13</title>
<path fill="none" stroke="black" d="M569.623,-308.806C573.412,-306.247 576.923,-303.329 580,-300 622.444,-254.087 576.54,-212.502 616,-164 618.855,-160.49 622.14,-157.293 625.7,-154.384"/>
<polygon fill="black" stroke="black" points="627.823,-157.168 633.872,-148.47 623.719,-151.497 627.823,-157.168"/>
</g>
<!-- 17 -->
<g id="node18" class="node"><title>17</title>
<path fill="none" stroke="#000080" d="M727.5,-410C727.5,-410 650.5,-410 650.5,-410 644.5,-410 638.5,-404 638.5,-398 638.5,-398 638.5,-384 638.5,-384 638.5,-378 644.5,-372 650.5,-372 650.5,-372 727.5,-372 727.5,-372 733.5,-372 739.5,-378 739.5,-384 739.5,-384 739.5,-398 739.5,-398 739.5,-404 733.5,-410 727.5,-410"/>
<text text-anchor="middle" x="689" y="-394.8" font-family="Times,serif" font-size="14.00" fill="#000080">Aprendizaje</text>
<text text-anchor="middle" x="689" y="-379.8" font-family="Times,serif" font-size="14.00" fill="#000080">Automático (3)</text>
</g>
<!-- 8&#45;&gt;17 -->
<g id="edge20" class="edge"><title>8&#45;&gt;17</title>
<path fill="none" stroke="#000080" d="M555.519,-345.169C578.334,-353.061 605.167,-362.344 628.696,-370.484"/>
<polygon fill="#000080" stroke="#000080" points="627.62,-373.815 638.214,-373.777 629.908,-367.2 627.62,-373.815"/>
</g>
<!-- 18 -->
<g id="node19" class="node"><title>18</title>
<path fill="none" stroke="#000080" d="M724.5,-353.5C724.5,-353.5 653.5,-353.5 653.5,-353.5 647.5,-353.5 641.5,-347.5 641.5,-341.5 641.5,-341.5 641.5,-312.5 641.5,-312.5 641.5,-306.5 647.5,-300.5 653.5,-300.5 653.5,-300.5 724.5,-300.5 724.5,-300.5 730.5,-300.5 736.5,-306.5 736.5,-312.5 736.5,-312.5 736.5,-341.5 736.5,-341.5 736.5,-347.5 730.5,-353.5 724.5,-353.5"/>
<text text-anchor="middle" x="689" y="-338.3" font-family="Times,serif" font-size="14.00" fill="#000080">Combinatoria,</text>
<text text-anchor="middle" x="689" y="-323.3" font-family="Times,serif" font-size="14.00" fill="#000080">Complejidad</text>
<text text-anchor="middle" x="689" y="-308.3" font-family="Times,serif" font-size="14.00" fill="#000080">y Lógica (3)</text>
</g>
<!-- 8&#45;&gt;18 -->
<g id="edge21" class="edge"><title>8&#45;&gt;18</title>
<path fill="none" stroke="#000080" d="M580.117,-327C597.196,-327 614.995,-327 631.096,-327"/>
<polygon fill="#000080" stroke="#000080" points="631.407,-330.5 641.407,-327 631.407,-323.5 631.407,-330.5"/>
</g>
<!-- 28 -->
<g id="node29" class="node"><title>28</title>
<path fill="none" stroke="#000080" d="M729,-282.5C729,-282.5 649,-282.5 649,-282.5 643,-282.5 637,-276.5 637,-270.5 637,-270.5 637,-241.5 637,-241.5 637,-235.5 643,-229.5 649,-229.5 649,-229.5 729,-229.5 729,-229.5 735,-229.5 741,-235.5 741,-241.5 741,-241.5 741,-270.5 741,-270.5 741,-276.5 735,-282.5 729,-282.5"/>
<text text-anchor="middle" x="689" y="-267.3" font-family="Times,serif" font-size="14.00" fill="#000080">Computabilidad</text>
<text text-anchor="middle" x="689" y="-252.3" font-family="Times,serif" font-size="14.00" fill="#000080">y Teoría</text>
<text text-anchor="middle" x="689" y="-237.3" font-family="Times,serif" font-size="14.00" fill="#000080">de Modelos (2)</text>
</g>
<!-- 8&#45;&gt;28 -->
<g id="edge31" class="edge"><title>8&#45;&gt;28</title>
<path fill="none" stroke="#000080" d="M555.73,-308.901C563.881,-305.99 572.184,-302.96 580,-300 595.444,-294.15 612.011,-287.561 627.418,-281.298"/>
<polygon fill="#000080" stroke="#000080" points="628.906,-284.471 636.84,-277.45 626.259,-277.99 628.906,-284.471"/>
</g>
<!-- 31 -->
<g id="node32" class="node"><title>31</title>
<path fill="none" stroke="#000080" d="M739,-211C739,-211 639,-211 639,-211 633,-211 627,-205 627,-199 627,-199 627,-185 627,-185 627,-179 633,-173 639,-173 639,-173 739,-173 739,-173 745,-173 751,-179 751,-185 751,-185 751,-199 751,-199 751,-205 745,-211 739,-211"/>
<text text-anchor="middle" x="689" y="-195.8" font-family="Times,serif" font-size="14.00" fill="#000080">Teoría de la</text>
<text text-anchor="middle" x="689" y="-180.8" font-family="Times,serif" font-size="14.00" fill="#000080">Computabilidad (3)</text>
</g>
<!-- 8&#45;&gt;31 -->
<g id="edge35" class="edge"><title>8&#45;&gt;31</title>
<path fill="none" stroke="#000080" d="M567.909,-308.872C572.254,-306.293 576.347,-303.353 580,-300 608.724,-273.635 587.723,-246.844 616,-220 617.094,-218.961 618.231,-217.96 619.406,-216.994"/>
<polygon fill="#000080" stroke="#000080" points="621.52,-219.785 627.629,-211.129 617.455,-214.086 621.52,-219.785"/>
</g>
<!-- 14 -->
<g id="node15" class="node"><title>14</title>
<path fill="none" stroke="black" d="M722,-574C722,-574 656,-574 656,-574 650,-574 644,-568 644,-562 644,-562 644,-548 644,-548 644,-542 650,-536 656,-536 656,-536 722,-536 722,-536 728,-536 734,-542 734,-548 734,-548 734,-562 734,-562 734,-568 728,-574 722,-574"/>
<text text-anchor="middle" x="689" y="-558.8" font-family="Times,serif" font-size="14.00">Ingeniería</text>
<text text-anchor="middle" x="689" y="-543.8" font-family="Times,serif" font-size="14.00">de Software I</text>
</g>
<!-- 9&#45;&gt;14 -->
<g id="edge15" class="edge"><title>9&#45;&gt;14</title>
<path fill="none" stroke="black" d="M546.374,-576.435C572.531,-572.476 606.072,-567.4 633.946,-563.181"/>
<polygon fill="black" stroke="black" points="634.571,-566.626 643.935,-561.669 633.524,-559.705 634.571,-566.626"/>
</g>
<!-- 24 -->
<g id="node25" class="node"><title>24</title>
<path fill="none" stroke="#000080" d="M738,-684C738,-684 640,-684 640,-684 634,-684 628,-678 628,-672 628,-672 628,-660 628,-660 628,-654 634,-648 640,-648 640,-648 738,-648 738,-648 744,-648 750,-654 750,-660 750,-660 750,-672 750,-672 750,-678 744,-684 738,-684"/>
<text text-anchor="middle" x="689" y="-662.3" font-family="Times,serif" font-size="14.00" fill="#000080">Metaheurísticas (2)</text>
</g>
<!-- 9&#45;&gt;24 -->
<g id="edge27" class="edge"><title>9&#45;&gt;24</title>
<path fill="none" stroke="#000080" d="M546.249,-605.718C567.097,-616.336 592.601,-628.846 616,-639 620.036,-640.751 624.225,-642.499 628.463,-644.215"/>
<polygon fill="#000080" stroke="#000080" points="627.187,-647.475 637.773,-647.911 629.77,-640.969 627.187,-647.475"/>
</g>
<!-- 26 -->
<g id="node27" class="node"><title>26</title>
<path fill="none" stroke="#000080" d="M749.5,-630C749.5,-630 628.5,-630 628.5,-630 622.5,-630 616.5,-624 616.5,-618 616.5,-618 616.5,-604 616.5,-604 616.5,-598 622.5,-592 628.5,-592 628.5,-592 749.5,-592 749.5,-592 755.5,-592 761.5,-598 761.5,-604 761.5,-604 761.5,-618 761.5,-618 761.5,-624 755.5,-630 749.5,-630"/>
<text text-anchor="middle" x="689" y="-614.8" font-family="Times,serif" font-size="14.00" fill="#000080">Seminario Avanzado</text>
<text text-anchor="middle" x="689" y="-599.8" font-family="Times,serif" font-size="14.00" fill="#000080">de Teoría de Grafos (2)</text>
</g>
<!-- 9&#45;&gt;26 -->
<g id="edge29" class="edge"><title>9&#45;&gt;26</title>
<path fill="none" stroke="#000080" d="M546.374,-589.565C564.271,-592.273 585.625,-595.505 606.255,-598.628"/>
<polygon fill="#000080" stroke="#000080" points="605.894,-602.113 616.306,-600.149 606.942,-595.192 605.894,-602.113"/>
</g>
<!-- 16 -->
<g id="node17" class="node"><title>16</title>
<path fill="none" stroke="black" d="M918.5,-518C918.5,-518 847.5,-518 847.5,-518 841.5,-518 835.5,-512 835.5,-506 835.5,-506 835.5,-492 835.5,-492 835.5,-486 841.5,-480 847.5,-480 847.5,-480 918.5,-480 918.5,-480 924.5,-480 930.5,-486 930.5,-492 930.5,-492 930.5,-506 930.5,-506 930.5,-512 924.5,-518 918.5,-518"/>
<text text-anchor="middle" x="883" y="-502.8" font-family="Times,serif" font-size="14.00">Ingeniería</text>
<text text-anchor="middle" x="883" y="-487.8" font-family="Times,serif" font-size="14.00">de Software II</text>
</g>
<!-- 10&#45;&gt;16 -->
<g id="edge17" class="edge"><title>10&#45;&gt;16</title>
<path fill="none" stroke="black" d="M753.134,-499.671C776.355,-499.55 802.495,-499.414 825.132,-499.296"/>
<polygon fill="black" stroke="black" points="825.282,-502.796 835.263,-499.243 825.245,-495.796 825.282,-502.796"/>
</g>
<!-- 11&#45;&gt;10 -->
<g id="edge12" class="edge"><title>11&#45;&gt;10</title>
<path fill="none" stroke="black" d="M561.353,-398.951C568.039,-402.311 574.44,-406.293 580,-411 604.32,-431.587 591.665,-452.43 616,-473 617.367,-474.155 618.788,-475.264 620.254,-476.327"/>
<polygon fill="black" stroke="black" points="618.758,-479.523 629.075,-481.934 622.513,-473.616 618.758,-479.523"/>
</g>
<!-- 13&#45;&gt;16 -->
<g id="edge19" class="edge"><title>13&#45;&gt;16</title>
<path fill="none" stroke="black" d="M744.025,-149.094C750.667,-153.308 756.9,-158.25 762,-164 843.378,-255.75 870.706,-406.649 878.875,-469.79"/>
<polygon fill="black" stroke="black" points="875.416,-470.34 880.107,-479.839 882.364,-469.488 875.416,-470.34"/>
</g>
<!-- 21 -->
<g id="node22" class="node"><title>21</title>
<path fill="none" stroke="#000080" d="M924,-154.5C924,-154.5 842,-154.5 842,-154.5 836,-154.5 830,-148.5 830,-142.5 830,-142.5 830,-113.5 830,-113.5 830,-107.5 836,-101.5 842,-101.5 842,-101.5 924,-101.5 924,-101.5 930,-101.5 936,-107.5 936,-113.5 936,-113.5 936,-142.5 936,-142.5 936,-148.5 930,-154.5 924,-154.5"/>
<text text-anchor="middle" x="883" y="-139.3" font-family="Times,serif" font-size="14.00" fill="#000080">Fundamentos</text>
<text text-anchor="middle" x="883" y="-124.3" font-family="Times,serif" font-size="14.00" fill="#000080">de Concurrencia</text>
<text text-anchor="middle" x="883" y="-109.3" font-family="Times,serif" font-size="14.00" fill="#000080">y Movilidad (3)</text>
</g>
<!-- 13&#45;&gt;21 -->
<g id="edge24" class="edge"><title>13&#45;&gt;21</title>
<path fill="none" stroke="#000080" d="M744.25,-128C767.731,-128 795.351,-128 819.67,-128"/>
<polygon fill="#000080" stroke="#000080" points="819.869,-131.5 829.869,-128 819.869,-124.5 819.869,-131.5"/>
</g>
<!-- 15 -->
<g id="node16" class="node"><title>15</title>
<path fill="none" stroke="black" d="M921,-628C921,-628 845,-628 845,-628 839,-628 833,-622 833,-616 833,-616 833,-604 833,-604 833,-598 839,-592 845,-592 845,-592 921,-592 921,-592 927,-592 933,-598 933,-604 933,-604 933,-616 933,-616 933,-622 927,-628 921,-628"/>
<text text-anchor="middle" x="883" y="-606.3" font-family="Times,serif" font-size="14.00">Bases de Datos</text>
</g>
<!-- 14&#45;&gt;15 -->
<g id="edge16" class="edge"><title>14&#45;&gt;15</title>
<path fill="none" stroke="black" d="M734.049,-567.618C760.392,-575.164 794.205,-584.85 822.854,-593.057"/>
<polygon fill="black" stroke="black" points="822.175,-596.503 832.752,-595.892 824.103,-589.774 822.175,-596.503"/>
</g>
<!-- 14&#45;&gt;16 -->
<g id="edge18" class="edge"><title>14&#45;&gt;16</title>
<path fill="none" stroke="black" d="M734.049,-542.152C761.303,-534.203 796.552,-523.922 825.807,-515.39"/>
<polygon fill="black" stroke="black" points="826.858,-518.729 835.478,-512.569 824.898,-512.009 826.858,-518.729"/>
</g>
<!-- 22 -->
<g id="node23" class="node"><title>22</title>
<path fill="none" stroke="#000080" d="M956,-574C956,-574 810,-574 810,-574 804,-574 798,-568 798,-562 798,-562 798,-548 798,-548 798,-542 804,-536 810,-536 810,-536 956,-536 956,-536 962,-536 968,-542 968,-548 968,-548 968,-562 968,-562 968,-568 962,-574 956,-574"/>
<text text-anchor="middle" x="883" y="-558.8" font-family="Times,serif" font-size="14.00" fill="#000080">Gestión de Proyectos</text>
<text text-anchor="middle" x="883" y="-543.8" font-family="Times,serif" font-size="14.00" fill="#000080">de Procesos de Software (3)</text>
</g>
<!-- 14&#45;&gt;22 -->
<g id="edge25" class="edge"><title>14&#45;&gt;22</title>
<path fill="none" stroke="#000080" d="M734.049,-555C750.096,-555 768.916,-555 787.651,-555"/>
<polygon fill="#000080" stroke="#000080" points="787.728,-558.5 797.728,-555 787.728,-551.5 787.728,-558.5"/>
</g>
<!-- 30 -->
<g id="node31" class="node"><title>30</title>
<path fill="none" stroke="#000080" d="M539,-52.5C539,-52.5 465,-52.5 465,-52.5 459,-52.5 453,-46.5 453,-40.5 453,-40.5 453,-11.5 453,-11.5 453,-5.5 459,0.5 465,0.5 465,0.5 539,0.5 539,0.5 545,0.5 551,-5.5 551,-11.5 551,-11.5 551,-40.5 551,-40.5 551,-46.5 545,-52.5 539,-52.5"/>
<text text-anchor="middle" x="502" y="-37.3" font-family="Times,serif" font-size="14.00" fill="#000080">Laboratorio</text>
<text text-anchor="middle" x="502" y="-22.3" font-family="Times,serif" font-size="14.00" fill="#000080">de Redes</text>
<text text-anchor="middle" x="502" y="-7.3" font-family="Times,serif" font-size="14.00" fill="#000080">Neuronales (3)</text>
</g>
<!-- 27&#45;&gt;30 -->
<g id="edge34" class="edge"><title>27&#45;&gt;30</title>
<path fill="none" stroke="#000080" d="M388.144,-31.6743C406.044,-30.7743 425.283,-29.807 442.715,-28.9305"/>
<polygon fill="#000080" stroke="#000080" points="442.935,-32.424 452.747,-28.4261 442.584,-25.4328 442.935,-32.424"/>
</g>
</g>
</svg>
