<?xml version="1.0" encoding="UTF-8" standalone="no"?>
<!DOCTYPE svg PUBLIC "-//W3C//DTD SVG 1.1//EN"
 "http://www.w3.org/Graphics/SVG/1.1/DTD/svg11.dtd">
<!-- Generated by graphviz version 2.30.0 (20130222.0013)
 -->
<!-- Title: %3 Pages: 1 -->
<svg width="956pt" height="891pt"
 viewBox="0.00 0.00 956.00 890.77" xmlns="http://www.w3.org/2000/svg" xmlns:xlink="http://www.w3.org/1999/xlink">
<g id="graph0" class="graph" transform="scale(1 1) rotate(0) translate(4 886.767)">
<title>%3</title>
<polygon fill="white" stroke="white" points="-4,5 -4,-886.767 953,-886.767 953,5 -4,5"/>
<!-- 0 -->
<g id="node1" class="node"><title>0</title>
<path fill="none" stroke="black" d="M59,-344.767C59,-344.767 15,-344.767 15,-344.767 9,-344.767 3,-338.767 3,-332.767 3,-332.767 3,-320.767 3,-320.767 3,-314.767 9,-308.767 15,-308.767 15,-308.767 59,-308.767 59,-308.767 65,-308.767 71,-314.767 71,-320.767 71,-320.767 71,-332.767 71,-332.767 71,-338.767 65,-344.767 59,-344.767"/>
<text text-anchor="middle" x="37" y="-323.067" font-family="Times,serif" font-size="14.00">Álgebra I</text>
</g>
<!-- 2 -->
<g id="node3" class="node"><title>2</title>
<path fill="none" stroke="black" d="M186,-353.267C186,-353.267 122,-353.267 122,-353.267 116,-353.267 110,-347.267 110,-341.267 110,-341.267 110,-312.267 110,-312.267 110,-306.267 116,-300.267 122,-300.267 122,-300.267 186,-300.267 186,-300.267 192,-300.267 198,-306.267 198,-312.267 198,-312.267 198,-341.267 198,-341.267 198,-347.267 192,-353.267 186,-353.267"/>
<text text-anchor="middle" x="154" y="-338.067" font-family="Times,serif" font-size="14.00">Algoritmos</text>
<text text-anchor="middle" x="154" y="-323.067" font-family="Times,serif" font-size="14.00">y Estructuras</text>
<text text-anchor="middle" x="154" y="-308.067" font-family="Times,serif" font-size="14.00">de Datos I</text>
</g>
<!-- 0&#45;&gt;2 -->
<g id="edge1" class="edge"><title>0&#45;&gt;2</title>
<path fill="none" stroke="black" d="M71.2628,-326.767C80.2233,-326.767 90.145,-326.767 99.897,-326.767"/>
<polygon fill="black" stroke="black" points="99.9508,-330.267 109.951,-326.767 99.9508,-323.267 99.9508,-330.267"/>
</g>
<!-- 1 -->
<g id="node2" class="node"><title>1</title>
<path fill="none" stroke="black" d="M62,-71.7672C62,-71.7672 12,-71.7672 12,-71.7672 6,-71.7672 0,-65.7672 0,-59.7672 0,-59.7672 0,-47.7672 0,-47.7672 0,-41.7672 6,-35.7672 12,-35.7672 12,-35.7672 62,-35.7672 62,-35.7672 68,-35.7672 74,-41.7672 74,-47.7672 74,-47.7672 74,-59.7672 74,-59.7672 74,-65.7672 68,-71.7672 62,-71.7672"/>
<text text-anchor="middle" x="37" y="-50.0672" font-family="Times,serif" font-size="14.00">Análisis II</text>
</g>
<!-- 4 -->
<g id="node5" class="node"><title>4</title>
<path fill="none" stroke="black" d="M185,-72.7672C185,-72.7672 123,-72.7672 123,-72.7672 117,-72.7672 111,-66.7672 111,-60.7672 111,-60.7672 111,-46.7672 111,-46.7672 111,-40.7672 117,-34.7672 123,-34.7672 123,-34.7672 185,-34.7672 185,-34.7672 191,-34.7672 197,-40.7672 197,-46.7672 197,-46.7672 197,-60.7672 197,-60.7672 197,-66.7672 191,-72.7672 185,-72.7672"/>
<text text-anchor="middle" x="154" y="-57.5672" font-family="Times,serif" font-size="14.00">Probabilidad</text>
<text text-anchor="middle" x="154" y="-42.5672" font-family="Times,serif" font-size="14.00">y Estadistica</text>
</g>
<!-- 1&#45;&gt;4 -->
<g id="edge3" class="edge"><title>1&#45;&gt;4</title>
<path fill="none" stroke="black" d="M74.0712,-53.7672C82.4944,-53.7672 91.6335,-53.7672 100.606,-53.7672"/>
<polygon fill="black" stroke="black" points="100.617,-57.2673 110.617,-53.7672 100.617,-50.2673 100.617,-57.2673"/>
</g>
<!-- 3 -->
<g id="node4" class="node"><title>3</title>
<path fill="none" stroke="black" d="M353,-205.767C353,-205.767 249,-205.767 249,-205.767 243,-205.767 237,-199.767 237,-193.767 237,-193.767 237,-181.767 237,-181.767 237,-175.767 243,-169.767 249,-169.767 249,-169.767 353,-169.767 353,-169.767 359,-169.767 365,-175.767 365,-181.767 365,-181.767 365,-193.767 365,-193.767 365,-199.767 359,-205.767 353,-205.767"/>
<text text-anchor="middle" x="301" y="-184.067" font-family="Times,serif" font-size="14.00">Métodos Númericos</text>
</g>
<!-- 2&#45;&gt;3 -->
<g id="edge2" class="edge"><title>2&#45;&gt;3</title>
<path fill="none" stroke="black" d="M182.615,-300.295C208.678,-275.311 247.499,-238.095 273.269,-213.392"/>
<polygon fill="black" stroke="black" points="276.022,-215.601 280.819,-206.155 271.178,-210.548 276.022,-215.601"/>
</g>
<!-- 6 -->
<g id="node7" class="node"><title>6</title>
<path fill="none" stroke="black" d="M334,-500.267C334,-500.267 268,-500.267 268,-500.267 262,-500.267 256,-494.267 256,-488.267 256,-488.267 256,-459.267 256,-459.267 256,-453.267 262,-447.267 268,-447.267 268,-447.267 334,-447.267 334,-447.267 340,-447.267 346,-453.267 346,-459.267 346,-459.267 346,-488.267 346,-488.267 346,-494.267 340,-500.267 334,-500.267"/>
<text text-anchor="middle" x="301" y="-485.067" font-family="Times,serif" font-size="14.00">Algoritmos</text>
<text text-anchor="middle" x="301" y="-470.067" font-family="Times,serif" font-size="14.00">y Estructudas</text>
<text text-anchor="middle" x="301" y="-455.067" font-family="Times,serif" font-size="14.00">de Datos II</text>
</g>
<!-- 2&#45;&gt;6 -->
<g id="edge7" class="edge"><title>2&#45;&gt;6</title>
<path fill="none" stroke="black" d="M180.923,-353.048C204.899,-377.354 240.66,-413.609 266.733,-440.042"/>
<polygon fill="black" stroke="black" points="264.298,-442.557 273.812,-447.218 269.282,-437.641 264.298,-442.557"/>
</g>
<!-- 7 -->
<g id="node8" class="node"><title>7</title>
<path fill="none" stroke="black" d="M345.5,-345.767C345.5,-345.767 256.5,-345.767 256.5,-345.767 250.5,-345.767 244.5,-339.767 244.5,-333.767 244.5,-333.767 244.5,-319.767 244.5,-319.767 244.5,-313.767 250.5,-307.767 256.5,-307.767 256.5,-307.767 345.5,-307.767 345.5,-307.767 351.5,-307.767 357.5,-313.767 357.5,-319.767 357.5,-319.767 357.5,-333.767 357.5,-333.767 357.5,-339.767 351.5,-345.767 345.5,-345.767"/>
<text text-anchor="middle" x="301" y="-330.567" font-family="Times,serif" font-size="14.00">Organización</text>
<text text-anchor="middle" x="301" y="-315.567" font-family="Times,serif" font-size="14.00">del Computador I</text>
</g>
<!-- 2&#45;&gt;7 -->
<g id="edge8" class="edge"><title>2&#45;&gt;7</title>
<path fill="none" stroke="black" d="M198.112,-326.767C209.46,-326.767 221.965,-326.767 234.212,-326.767"/>
<polygon fill="black" stroke="black" points="234.407,-330.267 244.407,-326.767 234.407,-323.267 234.407,-330.267"/>
</g>
<!-- 19 -->
<g id="node20" class="node"><title>19</title>
<path fill="none" stroke="#000080" d="M513,-151.267C513,-151.267 451,-151.267 451,-151.267 445,-151.267 439,-145.267 439,-139.267 439,-139.267 439,-110.267 439,-110.267 439,-104.267 445,-98.2672 451,-98.2672 451,-98.2672 513,-98.2672 513,-98.2672 519,-98.2672 525,-104.267 525,-110.267 525,-110.267 525,-139.267 525,-139.267 525,-145.267 519,-151.267 513,-151.267"/>
<text text-anchor="middle" x="482" y="-136.067" font-family="Times,serif" font-size="14.00" fill="#000080">Compresión</text>
<text text-anchor="middle" x="482" y="-121.067" font-family="Times,serif" font-size="14.00" fill="#000080">de Imágenes</text>
<text text-anchor="middle" x="482" y="-106.067" font-family="Times,serif" font-size="14.00" fill="#000080">Digitales (3)</text>
</g>
<!-- 3&#45;&gt;19 -->
<g id="edge23" class="edge"><title>3&#45;&gt;19</title>
<path fill="none" stroke="#000080" d="M353.294,-169.714C377.084,-161.341 405.306,-151.408 429.162,-143.012"/>
<polygon fill="#000080" stroke="#000080" points="430.48,-146.258 438.751,-139.637 428.156,-139.655 430.48,-146.258"/>
</g>
<!-- 23 -->
<g id="node24" class="node"><title>23</title>
<path fill="none" stroke="#000080" d="M533,-261.767C533,-261.767 431,-261.767 431,-261.767 425,-261.767 419,-255.767 419,-249.767 419,-249.767 419,-235.767 419,-235.767 419,-229.767 425,-223.767 431,-223.767 431,-223.767 533,-223.767 533,-223.767 539,-223.767 545,-229.767 545,-235.767 545,-235.767 545,-249.767 545,-249.767 545,-255.767 539,-261.767 533,-261.767"/>
<text text-anchor="middle" x="482" y="-246.567" font-family="Times,serif" font-size="14.00" fill="#000080">Introducción de</text>
<text text-anchor="middle" x="482" y="-231.567" font-family="Times,serif" font-size="14.00" fill="#000080">la Fotografía 3D (1)</text>
</g>
<!-- 3&#45;&gt;23 -->
<g id="edge27" class="edge"><title>3&#45;&gt;23</title>
<path fill="none" stroke="#000080" d="M360.611,-205.776C376.063,-210.524 392.915,-215.702 408.985,-220.64"/>
<polygon fill="#000080" stroke="#000080" points="408.282,-224.085 418.869,-223.677 410.338,-217.394 408.282,-224.085"/>
</g>
<!-- 29 -->
<g id="node30" class="node"><title>29</title>
<path fill="none" stroke="#000080" d="M540.5,-205.767C540.5,-205.767 423.5,-205.767 423.5,-205.767 417.5,-205.767 411.5,-199.767 411.5,-193.767 411.5,-193.767 411.5,-181.767 411.5,-181.767 411.5,-175.767 417.5,-169.767 423.5,-169.767 423.5,-169.767 540.5,-169.767 540.5,-169.767 546.5,-169.767 552.5,-175.767 552.5,-181.767 552.5,-181.767 552.5,-193.767 552.5,-193.767 552.5,-199.767 546.5,-205.767 540.5,-205.767"/>
<text text-anchor="middle" x="482" y="-184.067" font-family="Times,serif" font-size="14.00" fill="#000080">Visión en Robótica (3)</text>
</g>
<!-- 3&#45;&gt;29 -->
<g id="edge33" class="edge"><title>3&#45;&gt;29</title>
<path fill="none" stroke="#000080" d="M365.109,-187.767C376.826,-187.767 389.205,-187.767 401.34,-187.767"/>
<polygon fill="#000080" stroke="#000080" points="401.457,-191.267 411.457,-187.767 401.457,-184.267 401.457,-191.267"/>
</g>
<!-- 4&#45;&gt;3 -->
<g id="edge4" class="edge"><title>4&#45;&gt;3</title>
<path fill="none" stroke="black" d="M175.775,-72.9661C201.257,-96.515 244.527,-136.503 272.682,-162.521"/>
<polygon fill="black" stroke="black" points="270.475,-165.248 280.194,-169.464 275.226,-160.107 270.475,-165.248"/>
</g>
<!-- 5 -->
<g id="node6" class="node"><title>5</title>
<path fill="none" stroke="black" d="M904.5,-163.767C904.5,-163.767 821.5,-163.767 821.5,-163.767 815.5,-163.767 809.5,-157.767 809.5,-151.767 809.5,-151.767 809.5,-137.767 809.5,-137.767 809.5,-131.767 815.5,-125.767 821.5,-125.767 821.5,-125.767 904.5,-125.767 904.5,-125.767 910.5,-125.767 916.5,-131.767 916.5,-137.767 916.5,-137.767 916.5,-151.767 916.5,-151.767 916.5,-157.767 910.5,-163.767 904.5,-163.767"/>
<text text-anchor="middle" x="863" y="-148.567" font-family="Times,serif" font-size="14.00">Teoría de las</text>
<text text-anchor="middle" x="863" y="-133.567" font-family="Times,serif" font-size="14.00">Comunicaciones</text>
</g>
<!-- 4&#45;&gt;5 -->
<g id="edge5" class="edge"><title>4&#45;&gt;5</title>
<path fill="none" stroke="black" d="M197.053,-36.9934C208.831,-32.9589 221.762,-29.1349 234,-26.7672 376.305,0.764617 417.918,10.8922 560,-17.7672 657.707,-37.4758 763.163,-89.7143 819.972,-120.711"/>
<polygon fill="black" stroke="black" points="818.55,-123.923 828.998,-125.681 821.927,-117.791 818.55,-123.923"/>
</g>
<!-- 27 -->
<g id="node28" class="node"><title>27</title>
<path fill="none" stroke="#000080" d="M356,-71.7672C356,-71.7672 246,-71.7672 246,-71.7672 240,-71.7672 234,-65.7672 234,-59.7672 234,-59.7672 234,-47.7672 234,-47.7672 234,-41.7672 240,-35.7672 246,-35.7672 246,-35.7672 356,-35.7672 356,-35.7672 362,-35.7672 368,-41.7672 368,-47.7672 368,-47.7672 368,-59.7672 368,-59.7672 368,-65.7672 362,-71.7672 356,-71.7672"/>
<text text-anchor="middle" x="301" y="-50.0672" font-family="Times,serif" font-size="14.00" fill="#000080">Redes Neuronales (3)</text>
</g>
<!-- 4&#45;&gt;27 -->
<g id="edge31" class="edge"><title>4&#45;&gt;27</title>
<path fill="none" stroke="#000080" d="M197.33,-53.7672C205.65,-53.7672 214.616,-53.7672 223.662,-53.7672"/>
<polygon fill="#000080" stroke="#000080" points="223.879,-57.2673 233.879,-53.7672 223.879,-50.2673 223.879,-57.2673"/>
</g>
<!-- 8 -->
<g id="node9" class="node"><title>8</title>
<path fill="none" stroke="black" d="M548,-537.767C548,-537.767 416,-537.767 416,-537.767 410,-537.767 404,-531.767 404,-525.767 404,-525.767 404,-513.767 404,-513.767 404,-507.767 410,-501.767 416,-501.767 416,-501.767 548,-501.767 548,-501.767 554,-501.767 560,-507.767 560,-513.767 560,-513.767 560,-525.767 560,-525.767 560,-531.767 554,-537.767 548,-537.767"/>
<text text-anchor="middle" x="482" y="-516.067" font-family="Times,serif" font-size="14.00">Lógica y Computabilidad</text>
</g>
<!-- 6&#45;&gt;8 -->
<g id="edge9" class="edge"><title>6&#45;&gt;8</title>
<path fill="none" stroke="black" d="M346.247,-485.138C362.822,-489.397 382.206,-494.379 401.022,-499.214"/>
<polygon fill="black" stroke="black" points="400.236,-502.626 410.792,-501.725 401.978,-495.846 400.236,-502.626"/>
</g>
<!-- 9 -->
<g id="node10" class="node"><title>9</title>
<path fill="none" stroke="black" d="M514,-781.267C514,-781.267 450,-781.267 450,-781.267 444,-781.267 438,-775.267 438,-769.267 438,-769.267 438,-740.267 438,-740.267 438,-734.267 444,-728.267 450,-728.267 450,-728.267 514,-728.267 514,-728.267 520,-728.267 526,-734.267 526,-740.267 526,-740.267 526,-769.267 526,-769.267 526,-775.267 520,-781.267 514,-781.267"/>
<text text-anchor="middle" x="482" y="-766.067" font-family="Times,serif" font-size="14.00">Algoritmos</text>
<text text-anchor="middle" x="482" y="-751.067" font-family="Times,serif" font-size="14.00">y Estructuras</text>
<text text-anchor="middle" x="482" y="-736.067" font-family="Times,serif" font-size="14.00">de Datos III</text>
</g>
<!-- 6&#45;&gt;9 -->
<g id="edge10" class="edge"><title>6&#45;&gt;9</title>
<path fill="none" stroke="black" d="M318.84,-500.203C351.223,-551.04 422.184,-662.436 458.547,-719.519"/>
<polygon fill="black" stroke="black" points="455.75,-721.643 464.074,-728.197 461.654,-717.882 455.75,-721.643"/>
</g>
<!-- 10 -->
<g id="node11" class="node"><title>10</title>
<path fill="none" stroke="black" d="M721,-308.767C721,-308.767 617,-308.767 617,-308.767 611,-308.767 605,-302.767 605,-296.767 605,-296.767 605,-284.767 605,-284.767 605,-278.767 611,-272.767 617,-272.767 617,-272.767 721,-272.767 721,-272.767 727,-272.767 733,-278.767 733,-284.767 733,-284.767 733,-296.767 733,-296.767 733,-302.767 727,-308.767 721,-308.767"/>
<text text-anchor="middle" x="669" y="-287.067" font-family="Times,serif" font-size="14.00">Sistemas Operativos</text>
</g>
<!-- 6&#45;&gt;10 -->
<g id="edge11" class="edge"><title>6&#45;&gt;10</title>
<path fill="none" stroke="black" d="M346.457,-484.421C402.898,-495.114 500.118,-503.665 560,-453.767 608.036,-413.741 554.052,-364.134 596,-317.767 596.761,-316.926 597.551,-316.11 598.368,-315.32"/>
<polygon fill="black" stroke="black" points="600.768,-317.881 606.343,-308.871 596.366,-312.438 600.768,-317.881"/>
</g>
<!-- 25 -->
<g id="node26" class="node"><title>25</title>
<path fill="none" stroke="#000080" d="M516.5,-445.267C516.5,-445.267 447.5,-445.267 447.5,-445.267 441.5,-445.267 435.5,-439.267 435.5,-433.267 435.5,-433.267 435.5,-404.267 435.5,-404.267 435.5,-398.267 441.5,-392.267 447.5,-392.267 447.5,-392.267 516.5,-392.267 516.5,-392.267 522.5,-392.267 528.5,-398.267 528.5,-404.267 528.5,-404.267 528.5,-433.267 528.5,-433.267 528.5,-439.267 522.5,-445.267 516.5,-445.267"/>
<text text-anchor="middle" x="482" y="-430.067" font-family="Times,serif" font-size="14.00" fill="#000080">Programación</text>
<text text-anchor="middle" x="482" y="-415.067" font-family="Times,serif" font-size="14.00" fill="#000080">Orientada</text>
<text text-anchor="middle" x="482" y="-400.067" font-family="Times,serif" font-size="14.00" fill="#000080">a Objetos (3)</text>
</g>
<!-- 6&#45;&gt;25 -->
<g id="edge29" class="edge"><title>6&#45;&gt;25</title>
<path fill="none" stroke="#000080" d="M346.247,-460.172C370.299,-452.781 400.268,-443.573 425.832,-435.718"/>
<polygon fill="#000080" stroke="#000080" points="426.862,-439.063 435.393,-432.781 424.806,-432.372 426.862,-439.063"/>
</g>
<!-- 11 -->
<g id="node12" class="node"><title>11</title>
<path fill="none" stroke="black" d="M529,-317.767C529,-317.767 435,-317.767 435,-317.767 429,-317.767 423,-311.767 423,-305.767 423,-305.767 423,-291.767 423,-291.767 423,-285.767 429,-279.767 435,-279.767 435,-279.767 529,-279.767 529,-279.767 535,-279.767 541,-285.767 541,-291.767 541,-291.767 541,-305.767 541,-305.767 541,-311.767 535,-317.767 529,-317.767"/>
<text text-anchor="middle" x="482" y="-302.567" font-family="Times,serif" font-size="14.00">Organización</text>
<text text-anchor="middle" x="482" y="-287.567" font-family="Times,serif" font-size="14.00">del Computador II</text>
</g>
<!-- 7&#45;&gt;11 -->
<g id="edge12" class="edge"><title>7&#45;&gt;11</title>
<path fill="none" stroke="black" d="M357.656,-318.061C375.147,-315.325 394.662,-312.273 412.914,-309.418"/>
<polygon fill="black" stroke="black" points="413.564,-312.858 422.903,-307.855 412.482,-305.943 413.564,-312.858"/>
</g>
<!-- 20 -->
<g id="node21" class="node"><title>20</title>
<path fill="none" stroke="#000080" d="M532,-373.767C532,-373.767 432,-373.767 432,-373.767 426,-373.767 420,-367.767 420,-361.767 420,-361.767 420,-347.767 420,-347.767 420,-341.767 426,-335.767 432,-335.767 432,-335.767 532,-335.767 532,-335.767 538,-335.767 544,-341.767 544,-347.767 544,-347.767 544,-361.767 544,-361.767 544,-367.767 538,-373.767 532,-373.767"/>
<text text-anchor="middle" x="482" y="-358.567" font-family="Times,serif" font-size="14.00" fill="#000080">Diseño de Sistemas</text>
<text text-anchor="middle" x="482" y="-343.567" font-family="Times,serif" font-size="14.00" fill="#000080">con FPGA (3)</text>
</g>
<!-- 7&#45;&gt;20 -->
<g id="edge24" class="edge"><title>7&#45;&gt;20</title>
<path fill="none" stroke="#000080" d="M357.656,-335.473C374.127,-338.05 392.393,-340.907 409.709,-343.616"/>
<polygon fill="#000080" stroke="#000080" points="409.353,-347.102 419.774,-345.19 410.435,-340.186 409.353,-347.102"/>
</g>
<!-- 12 -->
<g id="node13" class="node"><title>12</title>
<path fill="none" stroke="black" d="M721,-490.767C721,-490.767 617,-490.767 617,-490.767 611,-490.767 605,-484.767 605,-478.767 605,-478.767 605,-466.767 605,-466.767 605,-460.767 611,-454.767 617,-454.767 617,-454.767 721,-454.767 721,-454.767 727,-454.767 733,-460.767 733,-466.767 733,-466.767 733,-478.767 733,-478.767 733,-484.767 727,-490.767 721,-490.767"/>
<text text-anchor="middle" x="669" y="-469.067" font-family="Times,serif" font-size="14.00">Teoría de Lenguajes</text>
</g>
<!-- 8&#45;&gt;12 -->
<g id="edge14" class="edge"><title>8&#45;&gt;12</title>
<path fill="none" stroke="black" d="M553.997,-501.73C567.444,-498.314 581.533,-494.735 595.04,-491.303"/>
<polygon fill="black" stroke="black" points="595.924,-494.69 604.754,-488.835 594.2,-487.905 595.924,-494.69"/>
</g>
<!-- 13 -->
<g id="node14" class="node"><title>13</title>
<path fill="none" stroke="black" d="M712,-689.267C712,-689.267 626,-689.267 626,-689.267 620,-689.267 614,-683.267 614,-677.267 614,-677.267 614,-648.267 614,-648.267 614,-642.267 620,-636.267 626,-636.267 626,-636.267 712,-636.267 712,-636.267 718,-636.267 724,-642.267 724,-648.267 724,-648.267 724,-677.267 724,-677.267 724,-683.267 718,-689.267 712,-689.267"/>
<text text-anchor="middle" x="669" y="-674.067" font-family="Times,serif" font-size="14.00">Paradigmas</text>
<text text-anchor="middle" x="669" y="-659.067" font-family="Times,serif" font-size="14.00">de los Lenguajes</text>
<text text-anchor="middle" x="669" y="-644.067" font-family="Times,serif" font-size="14.00">de Programación</text>
</g>
<!-- 8&#45;&gt;13 -->
<g id="edge15" class="edge"><title>8&#45;&gt;13</title>
<path fill="none" stroke="black" d="M499.22,-538.158C520.009,-560.973 557.934,-600.112 596,-626.767 598.892,-628.793 601.915,-630.769 605.014,-632.686"/>
<polygon fill="black" stroke="black" points="603.514,-635.864 613.906,-637.924 607.066,-629.833 603.514,-635.864"/>
</g>
<!-- 17 -->
<g id="node18" class="node"><title>17</title>
<path fill="none" stroke="#000080" d="M707.5,-436.767C707.5,-436.767 630.5,-436.767 630.5,-436.767 624.5,-436.767 618.5,-430.767 618.5,-424.767 618.5,-424.767 618.5,-410.767 618.5,-410.767 618.5,-404.767 624.5,-398.767 630.5,-398.767 630.5,-398.767 707.5,-398.767 707.5,-398.767 713.5,-398.767 719.5,-404.767 719.5,-410.767 719.5,-410.767 719.5,-424.767 719.5,-424.767 719.5,-430.767 713.5,-436.767 707.5,-436.767"/>
<text text-anchor="middle" x="669" y="-421.567" font-family="Times,serif" font-size="14.00" fill="#000080">Aprendizaje</text>
<text text-anchor="middle" x="669" y="-406.567" font-family="Times,serif" font-size="14.00" fill="#000080">Automático (3)</text>
</g>
<!-- 8&#45;&gt;17 -->
<g id="edge21" class="edge"><title>8&#45;&gt;17</title>
<path fill="none" stroke="#000080" d="M535.722,-501.764C544.209,-497.785 552.62,-493.126 560,-487.767 579.894,-473.322 575.941,-459.983 596,-445.767 600.134,-442.837 604.616,-440.162 609.254,-437.731"/>
<polygon fill="#000080" stroke="#000080" points="610.832,-440.855 618.312,-433.352 607.786,-434.553 610.832,-440.855"/>
</g>
<!-- 18 -->
<g id="node19" class="node"><title>18</title>
<path fill="none" stroke="#000080" d="M704.5,-380.267C704.5,-380.267 633.5,-380.267 633.5,-380.267 627.5,-380.267 621.5,-374.267 621.5,-368.267 621.5,-368.267 621.5,-339.267 621.5,-339.267 621.5,-333.267 627.5,-327.267 633.5,-327.267 633.5,-327.267 704.5,-327.267 704.5,-327.267 710.5,-327.267 716.5,-333.267 716.5,-339.267 716.5,-339.267 716.5,-368.267 716.5,-368.267 716.5,-374.267 710.5,-380.267 704.5,-380.267"/>
<text text-anchor="middle" x="669" y="-365.067" font-family="Times,serif" font-size="14.00" fill="#000080">Combinatoria,</text>
<text text-anchor="middle" x="669" y="-350.067" font-family="Times,serif" font-size="14.00" fill="#000080">Complejidad</text>
<text text-anchor="middle" x="669" y="-335.067" font-family="Times,serif" font-size="14.00" fill="#000080">y Lógica (3)</text>
</g>
<!-- 8&#45;&gt;18 -->
<g id="edge22" class="edge"><title>8&#45;&gt;18</title>
<path fill="none" stroke="#000080" d="M541.447,-501.76C548.277,-497.921 554.689,-493.305 560,-487.767 592.117,-454.278 565.07,-424.357 596,-389.767 600.803,-384.395 606.593,-379.727 612.776,-375.697"/>
<polygon fill="#000080" stroke="#000080" points="614.576,-378.698 621.396,-370.59 611.009,-372.676 614.576,-378.698"/>
</g>
<!-- 28 -->
<g id="node29" class="node"><title>28</title>
<path fill="none" stroke="#000080" d="M709,-618.267C709,-618.267 629,-618.267 629,-618.267 623,-618.267 617,-612.267 617,-606.267 617,-606.267 617,-577.267 617,-577.267 617,-571.267 623,-565.267 629,-565.267 629,-565.267 709,-565.267 709,-565.267 715,-565.267 721,-571.267 721,-577.267 721,-577.267 721,-606.267 721,-606.267 721,-612.267 715,-618.267 709,-618.267"/>
<text text-anchor="middle" x="669" y="-603.067" font-family="Times,serif" font-size="14.00" fill="#000080">Computabilidad</text>
<text text-anchor="middle" x="669" y="-588.067" font-family="Times,serif" font-size="14.00" fill="#000080">y Teoría</text>
<text text-anchor="middle" x="669" y="-573.067" font-family="Times,serif" font-size="14.00" fill="#000080">de Modelos (2)</text>
</g>
<!-- 8&#45;&gt;28 -->
<g id="edge32" class="edge"><title>8&#45;&gt;28</title>
<path fill="none" stroke="#000080" d="M529.683,-537.936C553.222,-547.097 582.057,-558.319 607.296,-568.142"/>
<polygon fill="#000080" stroke="#000080" points="606.186,-571.465 616.774,-571.831 608.725,-564.942 606.186,-571.465"/>
</g>
<!-- 31 -->
<g id="node32" class="node"><title>31</title>
<path fill="none" stroke="#000080" d="M719,-546.767C719,-546.767 619,-546.767 619,-546.767 613,-546.767 607,-540.767 607,-534.767 607,-534.767 607,-520.767 607,-520.767 607,-514.767 613,-508.767 619,-508.767 619,-508.767 719,-508.767 719,-508.767 725,-508.767 731,-514.767 731,-520.767 731,-520.767 731,-534.767 731,-534.767 731,-540.767 725,-546.767 719,-546.767"/>
<text text-anchor="middle" x="669" y="-531.567" font-family="Times,serif" font-size="14.00" fill="#000080">Teoría de la</text>
<text text-anchor="middle" x="669" y="-516.567" font-family="Times,serif" font-size="14.00" fill="#000080">Computabilidad (3)</text>
</g>
<!-- 8&#45;&gt;31 -->
<g id="edge35" class="edge"><title>8&#45;&gt;31</title>
<path fill="none" stroke="#000080" d="M560.117,-523.102C572.156,-523.623 584.553,-524.159 596.46,-524.674"/>
<polygon fill="#000080" stroke="#000080" points="596.636,-528.184 606.778,-525.12 596.938,-521.191 596.636,-528.184"/>
</g>
<!-- 14 -->
<g id="node15" class="node"><title>14</title>
<path fill="none" stroke="black" d="M702,-855.767C702,-855.767 636,-855.767 636,-855.767 630,-855.767 624,-849.767 624,-843.767 624,-843.767 624,-829.767 624,-829.767 624,-823.767 630,-817.767 636,-817.767 636,-817.767 702,-817.767 702,-817.767 708,-817.767 714,-823.767 714,-829.767 714,-829.767 714,-843.767 714,-843.767 714,-849.767 708,-855.767 702,-855.767"/>
<text text-anchor="middle" x="669" y="-840.567" font-family="Times,serif" font-size="14.00">Ingeniería</text>
<text text-anchor="middle" x="669" y="-825.567" font-family="Times,serif" font-size="14.00">de Software I</text>
</g>
<!-- 9&#45;&gt;14 -->
<g id="edge16" class="edge"><title>9&#45;&gt;14</title>
<path fill="none" stroke="black" d="M526.115,-776.305C547.043,-786.518 572.652,-798.666 596,-808.767 601.816,-811.284 607.938,-813.825 614.055,-816.296"/>
<polygon fill="black" stroke="black" points="613.032,-819.657 623.618,-820.109 615.625,-813.154 613.032,-819.657"/>
</g>
<!-- 24 -->
<g id="node25" class="node"><title>24</title>
<path fill="none" stroke="#000080" d="M718,-799.767C718,-799.767 620,-799.767 620,-799.767 614,-799.767 608,-793.767 608,-787.767 608,-787.767 608,-775.767 608,-775.767 608,-769.767 614,-763.767 620,-763.767 620,-763.767 718,-763.767 718,-763.767 724,-763.767 730,-769.767 730,-775.767 730,-775.767 730,-787.767 730,-787.767 730,-793.767 724,-799.767 718,-799.767"/>
<text text-anchor="middle" x="669" y="-778.067" font-family="Times,serif" font-size="14.00" fill="#000080">Metaheurísticas (2)</text>
</g>
<!-- 9&#45;&gt;24 -->
<g id="edge28" class="edge"><title>9&#45;&gt;24</title>
<path fill="none" stroke="#000080" d="M526.374,-761.097C547.587,-764.193 573.655,-767.998 597.62,-771.495"/>
<polygon fill="#000080" stroke="#000080" points="597.34,-774.992 607.741,-772.973 598.351,-768.065 597.34,-774.992"/>
</g>
<!-- 26 -->
<g id="node27" class="node"><title>26</title>
<path fill="none" stroke="#000080" d="M729.5,-745.767C729.5,-745.767 608.5,-745.767 608.5,-745.767 602.5,-745.767 596.5,-739.767 596.5,-733.767 596.5,-733.767 596.5,-719.767 596.5,-719.767 596.5,-713.767 602.5,-707.767 608.5,-707.767 608.5,-707.767 729.5,-707.767 729.5,-707.767 735.5,-707.767 741.5,-713.767 741.5,-719.767 741.5,-719.767 741.5,-733.767 741.5,-733.767 741.5,-739.767 735.5,-745.767 729.5,-745.767"/>
<text text-anchor="middle" x="669" y="-730.567" font-family="Times,serif" font-size="14.00" fill="#000080">Seminario Avanzado</text>
<text text-anchor="middle" x="669" y="-715.567" font-family="Times,serif" font-size="14.00" fill="#000080">de Teoría de Grafos (2)</text>
</g>
<!-- 9&#45;&gt;26 -->
<g id="edge30" class="edge"><title>9&#45;&gt;26</title>
<path fill="none" stroke="#000080" d="M526.374,-748.202C544.271,-745.494 565.625,-742.262 586.255,-739.139"/>
<polygon fill="#000080" stroke="#000080" points="586.942,-742.575 596.306,-737.618 585.894,-735.654 586.942,-742.575"/>
</g>
<!-- 10&#45;&gt;5 -->
<g id="edge6" class="edge"><title>10&#45;&gt;5</title>
<path fill="none" stroke="black" d="M693.929,-272.571C727.854,-246.774 790.076,-199.459 828.554,-170.2"/>
<polygon fill="black" stroke="black" points="831.012,-172.728 836.854,-163.889 826.775,-167.156 831.012,-172.728"/>
</g>
<!-- 16 -->
<g id="node17" class="node"><title>16</title>
<path fill="none" stroke="black" d="M898.5,-649.767C898.5,-649.767 827.5,-649.767 827.5,-649.767 821.5,-649.767 815.5,-643.767 815.5,-637.767 815.5,-637.767 815.5,-623.767 815.5,-623.767 815.5,-617.767 821.5,-611.767 827.5,-611.767 827.5,-611.767 898.5,-611.767 898.5,-611.767 904.5,-611.767 910.5,-617.767 910.5,-623.767 910.5,-623.767 910.5,-637.767 910.5,-637.767 910.5,-643.767 904.5,-649.767 898.5,-649.767"/>
<text text-anchor="middle" x="863" y="-634.567" font-family="Times,serif" font-size="14.00">Ingeniería</text>
<text text-anchor="middle" x="863" y="-619.567" font-family="Times,serif" font-size="14.00">de Software II</text>
</g>
<!-- 10&#45;&gt;16 -->
<g id="edge18" class="edge"><title>10&#45;&gt;16</title>
<path fill="none" stroke="black" d="M730.572,-308.814C734.714,-311.414 738.589,-314.381 742,-317.767 823.432,-398.604 850.61,-540.583 858.802,-601.576"/>
<polygon fill="black" stroke="black" points="855.35,-602.175 860.08,-611.656 862.294,-601.295 855.35,-602.175"/>
</g>
<!-- 11&#45;&gt;10 -->
<g id="edge13" class="edge"><title>11&#45;&gt;10</title>
<path fill="none" stroke="black" d="M541.028,-296.258C557.946,-295.526 576.661,-294.717 594.406,-293.95"/>
<polygon fill="black" stroke="black" points="594.881,-297.432 604.721,-293.504 594.579,-290.439 594.881,-297.432"/>
</g>
<!-- 13&#45;&gt;16 -->
<g id="edge20" class="edge"><title>13&#45;&gt;16</title>
<path fill="none" stroke="black" d="M724.25,-653.726C749.605,-649.5 779.786,-644.47 805.426,-640.196"/>
<polygon fill="black" stroke="black" points="806.086,-643.635 815.374,-638.538 804.935,-636.73 806.086,-643.635"/>
</g>
<!-- 21 -->
<g id="node22" class="node"><title>21</title>
<path fill="none" stroke="#000080" d="M904,-721.267C904,-721.267 822,-721.267 822,-721.267 816,-721.267 810,-715.267 810,-709.267 810,-709.267 810,-680.267 810,-680.267 810,-674.267 816,-668.267 822,-668.267 822,-668.267 904,-668.267 904,-668.267 910,-668.267 916,-674.267 916,-680.267 916,-680.267 916,-709.267 916,-709.267 916,-715.267 910,-721.267 904,-721.267"/>
<text text-anchor="middle" x="863" y="-706.067" font-family="Times,serif" font-size="14.00" fill="#000080">Fundamentos</text>
<text text-anchor="middle" x="863" y="-691.067" font-family="Times,serif" font-size="14.00" fill="#000080">de Concurrencia</text>
<text text-anchor="middle" x="863" y="-676.067" font-family="Times,serif" font-size="14.00" fill="#000080">y Movilidad (3)</text>
</g>
<!-- 13&#45;&gt;21 -->
<g id="edge25" class="edge"><title>13&#45;&gt;21</title>
<path fill="none" stroke="#000080" d="M724.25,-671.809C747.836,-675.74 775.598,-680.367 799.996,-684.433"/>
<polygon fill="#000080" stroke="#000080" points="799.43,-687.887 809.869,-686.079 800.58,-680.982 799.43,-687.887"/>
</g>
<!-- 15 -->
<g id="node16" class="node"><title>15</title>
<path fill="none" stroke="black" d="M901,-826.767C901,-826.767 825,-826.767 825,-826.767 819,-826.767 813,-820.767 813,-814.767 813,-814.767 813,-802.767 813,-802.767 813,-796.767 819,-790.767 825,-790.767 825,-790.767 901,-790.767 901,-790.767 907,-790.767 913,-796.767 913,-802.767 913,-802.767 913,-814.767 913,-814.767 913,-820.767 907,-826.767 901,-826.767"/>
<text text-anchor="middle" x="863" y="-805.067" font-family="Times,serif" font-size="14.00">Bases de Datos</text>
</g>
<!-- 14&#45;&gt;15 -->
<g id="edge17" class="edge"><title>14&#45;&gt;15</title>
<path fill="none" stroke="black" d="M714.049,-830.343C740.392,-826.502 774.205,-821.571 802.854,-817.393"/>
<polygon fill="black" stroke="black" points="803.362,-820.856 812.752,-815.949 802.352,-813.929 803.362,-820.856"/>
</g>
<!-- 14&#45;&gt;16 -->
<g id="edge19" class="edge"><title>14&#45;&gt;16</title>
<path fill="none" stroke="black" d="M714.163,-827.17C724.528,-823.037 734.672,-817.147 742,-808.767 786.845,-757.48 732.177,-710.182 778,-659.767 785.468,-651.551 795.376,-645.662 805.762,-641.442"/>
<polygon fill="black" stroke="black" points="807.132,-644.669 815.378,-638.016 804.783,-638.075 807.132,-644.669"/>
</g>
<!-- 22 -->
<g id="node23" class="node"><title>22</title>
<path fill="none" stroke="#000080" d="M936,-882.767C936,-882.767 790,-882.767 790,-882.767 784,-882.767 778,-876.767 778,-870.767 778,-870.767 778,-856.767 778,-856.767 778,-850.767 784,-844.767 790,-844.767 790,-844.767 936,-844.767 936,-844.767 942,-844.767 948,-850.767 948,-856.767 948,-856.767 948,-870.767 948,-870.767 948,-876.767 942,-882.767 936,-882.767"/>
<text text-anchor="middle" x="863" y="-867.567" font-family="Times,serif" font-size="14.00" fill="#000080">Gestión de Proyectos</text>
<text text-anchor="middle" x="863" y="-852.567" font-family="Times,serif" font-size="14.00" fill="#000080">de Procesos de Software (3)</text>
</g>
<!-- 14&#45;&gt;22 -->
<g id="edge26" class="edge"><title>14&#45;&gt;22</title>
<path fill="none" stroke="#000080" d="M714.049,-842.962C730.096,-845.218 748.916,-847.865 767.651,-850.499"/>
<polygon fill="#000080" stroke="#000080" points="767.338,-853.99 777.728,-851.916 768.313,-847.058 767.338,-853.99"/>
</g>
<!-- 30 -->
<g id="node31" class="node"><title>30</title>
<path fill="none" stroke="#000080" d="M519,-80.2672C519,-80.2672 445,-80.2672 445,-80.2672 439,-80.2672 433,-74.2672 433,-68.2672 433,-68.2672 433,-39.2672 433,-39.2672 433,-33.2672 439,-27.2672 445,-27.2672 445,-27.2672 519,-27.2672 519,-27.2672 525,-27.2672 531,-33.2672 531,-39.2672 531,-39.2672 531,-68.2672 531,-68.2672 531,-74.2672 525,-80.2672 519,-80.2672"/>
<text text-anchor="middle" x="482" y="-65.0672" font-family="Times,serif" font-size="14.00" fill="#000080">Laboratorio</text>
<text text-anchor="middle" x="482" y="-50.0672" font-family="Times,serif" font-size="14.00" fill="#000080">de Redes</text>
<text text-anchor="middle" x="482" y="-35.0672" font-family="Times,serif" font-size="14.00" fill="#000080">Neuronales (3)</text>
</g>
<!-- 27&#45;&gt;30 -->
<g id="edge34" class="edge"><title>27&#45;&gt;30</title>
<path fill="none" stroke="#000080" d="M368.144,-53.7672C386.044,-53.7672 405.283,-53.7672 422.715,-53.7672"/>
<polygon fill="#000080" stroke="#000080" points="422.747,-57.2673 432.747,-53.7672 422.747,-50.2673 422.747,-57.2673"/>
</g>
</g>
</svg>
