<?xml version="1.0" encoding="UTF-8" standalone="no"?>
<!DOCTYPE svg PUBLIC "-//W3C//DTD SVG 1.1//EN"
 "http://www.w3.org/Graphics/SVG/1.1/DTD/svg11.dtd">
<!-- Generated by graphviz version 2.30.0 (20130222.0013)
 -->
<!-- Title: %3 Pages: 1 -->
<svg width="956pt" height="931pt"
 viewBox="0.00 0.00 956.00 931.00" xmlns="http://www.w3.org/2000/svg" xmlns:xlink="http://www.w3.org/1999/xlink">
<g id="graph0" class="graph" transform="scale(1 1) rotate(0) translate(4 927)">
<title>%3</title>
<polygon fill="white" stroke="white" points="-4,5 -4,-927 953,-927 953,5 -4,5"/>
<!-- 0 -->
<g id="node1" class="node"><title>0</title>
<path fill="none" stroke="black" d="M59,-356C59,-356 15,-356 15,-356 9,-356 3,-350 3,-344 3,-344 3,-332 3,-332 3,-326 9,-320 15,-320 15,-320 59,-320 59,-320 65,-320 71,-326 71,-332 71,-332 71,-344 71,-344 71,-350 65,-356 59,-356"/>
<text text-anchor="middle" x="37" y="-334.3" font-family="Times,serif" font-size="14.00">Álgebra I</text>
</g>
<!-- 2 -->
<g id="node3" class="node"><title>2</title>
<path fill="none" stroke="black" d="M186,-364.5C186,-364.5 122,-364.5 122,-364.5 116,-364.5 110,-358.5 110,-352.5 110,-352.5 110,-323.5 110,-323.5 110,-317.5 116,-311.5 122,-311.5 122,-311.5 186,-311.5 186,-311.5 192,-311.5 198,-317.5 198,-323.5 198,-323.5 198,-352.5 198,-352.5 198,-358.5 192,-364.5 186,-364.5"/>
<text text-anchor="middle" x="154" y="-349.3" font-family="Times,serif" font-size="14.00">Algoritmos</text>
<text text-anchor="middle" x="154" y="-334.3" font-family="Times,serif" font-size="14.00">y Estructuras</text>
<text text-anchor="middle" x="154" y="-319.3" font-family="Times,serif" font-size="14.00">de Datos I</text>
</g>
<!-- 0&#45;&gt;2 -->
<g id="edge1" class="edge"><title>0&#45;&gt;2</title>
<path fill="none" stroke="black" d="M71.2628,-338C80.2233,-338 90.145,-338 99.897,-338"/>
<polygon fill="black" stroke="black" points="99.9508,-341.5 109.951,-338 99.9508,-334.5 99.9508,-341.5"/>
</g>
<!-- 1 -->
<g id="node2" class="node"><title>1</title>
<path fill="none" stroke="black" d="M62,-99C62,-99 12,-99 12,-99 6,-99 0,-93 0,-87 0,-87 0,-75 0,-75 0,-69 6,-63 12,-63 12,-63 62,-63 62,-63 68,-63 74,-69 74,-75 74,-75 74,-87 74,-87 74,-93 68,-99 62,-99"/>
<text text-anchor="middle" x="37" y="-77.3" font-family="Times,serif" font-size="14.00">Análisis II</text>
</g>
<!-- 4 -->
<g id="node5" class="node"><title>4</title>
<path fill="none" stroke="black" d="M185,-100C185,-100 123,-100 123,-100 117,-100 111,-94 111,-88 111,-88 111,-74 111,-74 111,-68 117,-62 123,-62 123,-62 185,-62 185,-62 191,-62 197,-68 197,-74 197,-74 197,-88 197,-88 197,-94 191,-100 185,-100"/>
<text text-anchor="middle" x="154" y="-84.8" font-family="Times,serif" font-size="14.00">Probabilidad</text>
<text text-anchor="middle" x="154" y="-69.8" font-family="Times,serif" font-size="14.00">y Estadistica</text>
</g>
<!-- 1&#45;&gt;4 -->
<g id="edge3" class="edge"><title>1&#45;&gt;4</title>
<path fill="none" stroke="black" d="M74.0712,-81C82.4944,-81 91.6335,-81 100.606,-81"/>
<polygon fill="black" stroke="black" points="100.617,-84.5001 110.617,-81 100.617,-77.5001 100.617,-84.5001"/>
</g>
<!-- 3 -->
<g id="node4" class="node"><title>3</title>
<path fill="none" stroke="black" d="M353,-210C353,-210 249,-210 249,-210 243,-210 237,-204 237,-198 237,-198 237,-186 237,-186 237,-180 243,-174 249,-174 249,-174 353,-174 353,-174 359,-174 365,-180 365,-186 365,-186 365,-198 365,-198 365,-204 359,-210 353,-210"/>
<text text-anchor="middle" x="301" y="-188.3" font-family="Times,serif" font-size="14.00">Métodos Númericos</text>
</g>
<!-- 2&#45;&gt;3 -->
<g id="edge2" class="edge"><title>2&#45;&gt;3</title>
<path fill="none" stroke="black" d="M181.258,-311.561C207.702,-284.935 248.231,-244.126 274.427,-217.749"/>
<polygon fill="black" stroke="black" points="277.176,-219.949 281.739,-210.387 272.209,-215.016 277.176,-219.949"/>
</g>
<!-- 6 -->
<g id="node7" class="node"><title>6</title>
<path fill="none" stroke="black" d="M334,-494.5C334,-494.5 268,-494.5 268,-494.5 262,-494.5 256,-488.5 256,-482.5 256,-482.5 256,-453.5 256,-453.5 256,-447.5 262,-441.5 268,-441.5 268,-441.5 334,-441.5 334,-441.5 340,-441.5 346,-447.5 346,-453.5 346,-453.5 346,-482.5 346,-482.5 346,-488.5 340,-494.5 334,-494.5"/>
<text text-anchor="middle" x="301" y="-479.3" font-family="Times,serif" font-size="14.00">Algoritmos</text>
<text text-anchor="middle" x="301" y="-464.3" font-family="Times,serif" font-size="14.00">y Estructudas</text>
<text text-anchor="middle" x="301" y="-449.3" font-family="Times,serif" font-size="14.00">de Datos II</text>
</g>
<!-- 2&#45;&gt;6 -->
<g id="edge7" class="edge"><title>2&#45;&gt;6</title>
<path fill="none" stroke="black" d="M184.343,-364.307C207.043,-384.659 238.618,-412.968 263.042,-434.866"/>
<polygon fill="black" stroke="black" points="260.919,-437.662 270.701,-441.732 265.591,-432.45 260.919,-437.662"/>
</g>
<!-- 7 -->
<g id="node8" class="node"><title>7</title>
<path fill="none" stroke="black" d="M345.5,-357C345.5,-357 256.5,-357 256.5,-357 250.5,-357 244.5,-351 244.5,-345 244.5,-345 244.5,-331 244.5,-331 244.5,-325 250.5,-319 256.5,-319 256.5,-319 345.5,-319 345.5,-319 351.5,-319 357.5,-325 357.5,-331 357.5,-331 357.5,-345 357.5,-345 357.5,-351 351.5,-357 345.5,-357"/>
<text text-anchor="middle" x="301" y="-341.8" font-family="Times,serif" font-size="14.00">Organización</text>
<text text-anchor="middle" x="301" y="-326.8" font-family="Times,serif" font-size="14.00">del Computador I</text>
</g>
<!-- 2&#45;&gt;7 -->
<g id="edge8" class="edge"><title>2&#45;&gt;7</title>
<path fill="none" stroke="black" d="M198.112,-338C209.46,-338 221.965,-338 234.212,-338"/>
<polygon fill="black" stroke="black" points="234.407,-341.5 244.407,-338 234.407,-334.5 234.407,-341.5"/>
</g>
<!-- 19 -->
<g id="node20" class="node"><title>19</title>
<path fill="none" stroke="#000080" d="M513,-218.5C513,-218.5 451,-218.5 451,-218.5 445,-218.5 439,-212.5 439,-206.5 439,-206.5 439,-177.5 439,-177.5 439,-171.5 445,-165.5 451,-165.5 451,-165.5 513,-165.5 513,-165.5 519,-165.5 525,-171.5 525,-177.5 525,-177.5 525,-206.5 525,-206.5 525,-212.5 519,-218.5 513,-218.5"/>
<text text-anchor="middle" x="482" y="-203.3" font-family="Times,serif" font-size="14.00" fill="#000080">Compresión</text>
<text text-anchor="middle" x="482" y="-188.3" font-family="Times,serif" font-size="14.00" fill="#000080">de Imágenes</text>
<text text-anchor="middle" x="482" y="-173.3" font-family="Times,serif" font-size="14.00" fill="#000080">Digitales (3)</text>
</g>
<!-- 3&#45;&gt;19 -->
<g id="edge24" class="edge"><title>3&#45;&gt;19</title>
<path fill="none" stroke="#000080" d="M365.109,-192C385.937,-192 408.86,-192 428.782,-192"/>
<polygon fill="#000080" stroke="#000080" points="428.899,-195.5 438.899,-192 428.899,-188.5 428.899,-195.5"/>
</g>
<!-- 23 -->
<g id="node24" class="node"><title>23</title>
<path fill="none" stroke="#000080" d="M533,-147C533,-147 431,-147 431,-147 425,-147 419,-141 419,-135 419,-135 419,-121 419,-121 419,-115 425,-109 431,-109 431,-109 533,-109 533,-109 539,-109 545,-115 545,-121 545,-121 545,-135 545,-135 545,-141 539,-147 533,-147"/>
<text text-anchor="middle" x="482" y="-131.8" font-family="Times,serif" font-size="14.00" fill="#000080">Introducción de</text>
<text text-anchor="middle" x="482" y="-116.8" font-family="Times,serif" font-size="14.00" fill="#000080">la Fotografía 3D (1)</text>
</g>
<!-- 3&#45;&gt;23 -->
<g id="edge28" class="edge"><title>3&#45;&gt;23</title>
<path fill="none" stroke="#000080" d="M352.815,-173.831C373.072,-166.589 396.603,-158.175 417.933,-150.549"/>
<polygon fill="#000080" stroke="#000080" points="419.321,-153.77 427.559,-147.107 416.965,-147.178 419.321,-153.77"/>
</g>
<!-- 29 -->
<g id="node30" class="node"><title>29</title>
<path fill="none" stroke="#000080" d="M540.5,-273C540.5,-273 423.5,-273 423.5,-273 417.5,-273 411.5,-267 411.5,-261 411.5,-261 411.5,-249 411.5,-249 411.5,-243 417.5,-237 423.5,-237 423.5,-237 540.5,-237 540.5,-237 546.5,-237 552.5,-243 552.5,-249 552.5,-249 552.5,-261 552.5,-261 552.5,-267 546.5,-273 540.5,-273"/>
<text text-anchor="middle" x="482" y="-251.3" font-family="Times,serif" font-size="14.00" fill="#000080">Visión en Robótica (3)</text>
</g>
<!-- 3&#45;&gt;29 -->
<g id="edge34" class="edge"><title>3&#45;&gt;29</title>
<path fill="none" stroke="#000080" d="M353.294,-210.053C374.172,-217.401 398.465,-225.951 420.224,-233.61"/>
<polygon fill="#000080" stroke="#000080" points="419.103,-236.926 429.698,-236.944 421.427,-230.323 419.103,-236.926"/>
</g>
<!-- 4&#45;&gt;3 -->
<g id="edge4" class="edge"><title>4&#45;&gt;3</title>
<path fill="none" stroke="black" d="M179.926,-100.082C204.33,-118.763 241.609,-147.3 268.149,-167.618"/>
<polygon fill="black" stroke="black" points="266.291,-170.603 276.359,-173.902 270.546,-165.045 266.291,-170.603"/>
</g>
<!-- 5 -->
<g id="node6" class="node"><title>5</title>
<path fill="none" stroke="black" d="M904.5,-240C904.5,-240 821.5,-240 821.5,-240 815.5,-240 809.5,-234 809.5,-228 809.5,-228 809.5,-214 809.5,-214 809.5,-208 815.5,-202 821.5,-202 821.5,-202 904.5,-202 904.5,-202 910.5,-202 916.5,-208 916.5,-214 916.5,-214 916.5,-228 916.5,-228 916.5,-234 910.5,-240 904.5,-240"/>
<text text-anchor="middle" x="863" y="-224.8" font-family="Times,serif" font-size="14.00">Teoría de las</text>
<text text-anchor="middle" x="863" y="-209.8" font-family="Times,serif" font-size="14.00">Comunicaciones</text>
</g>
<!-- 4&#45;&gt;5 -->
<g id="edge5" class="edge"><title>4&#45;&gt;5</title>
<path fill="none" stroke="black" d="M197.283,-78.4038C271.623,-74.8485 430.169,-71.7871 560,-100 655.156,-120.678 759.113,-168.382 816.861,-197.333"/>
<polygon fill="black" stroke="black" points="815.563,-200.598 826.067,-201.986 818.721,-194.351 815.563,-200.598"/>
</g>
<!-- 27 -->
<g id="node28" class="node"><title>27</title>
<path fill="none" stroke="#000080" d="M356,-49C356,-49 246,-49 246,-49 240,-49 234,-43 234,-37 234,-37 234,-25 234,-25 234,-19 240,-13 246,-13 246,-13 356,-13 356,-13 362,-13 368,-19 368,-25 368,-25 368,-37 368,-37 368,-43 362,-49 356,-49"/>
<text text-anchor="middle" x="301" y="-27.3" font-family="Times,serif" font-size="14.00" fill="#000080">Redes Neuronales (3)</text>
</g>
<!-- 4&#45;&gt;27 -->
<g id="edge32" class="edge"><title>4&#45;&gt;27</title>
<path fill="none" stroke="#000080" d="M197.33,-66.4035C209.976,-62.0429 224.112,-57.1683 237.754,-52.4642"/>
<polygon fill="#000080" stroke="#000080" points="239.259,-55.6475 247.572,-49.0788 236.977,-49.0299 239.259,-55.6475"/>
</g>
<!-- 8 -->
<g id="node9" class="node"><title>8</title>
<path fill="none" stroke="black" d="M548,-733C548,-733 416,-733 416,-733 410,-733 404,-727 404,-721 404,-721 404,-709 404,-709 404,-703 410,-697 416,-697 416,-697 548,-697 548,-697 554,-697 560,-703 560,-709 560,-709 560,-721 560,-721 560,-727 554,-733 548,-733"/>
<text text-anchor="middle" x="482" y="-711.3" font-family="Times,serif" font-size="14.00">Lógica y Computabilidad</text>
</g>
<!-- 6&#45;&gt;8 -->
<g id="edge9" class="edge"><title>6&#45;&gt;8</title>
<path fill="none" stroke="black" d="M321.156,-494.433C355.543,-541.883 427.354,-640.975 461.784,-688.484"/>
<polygon fill="black" stroke="black" points="459.058,-690.687 467.76,-696.731 464.726,-686.58 459.058,-690.687"/>
</g>
<!-- 9 -->
<g id="node10" class="node"><title>9</title>
<path fill="none" stroke="black" d="M514,-494.5C514,-494.5 450,-494.5 450,-494.5 444,-494.5 438,-488.5 438,-482.5 438,-482.5 438,-453.5 438,-453.5 438,-447.5 444,-441.5 450,-441.5 450,-441.5 514,-441.5 514,-441.5 520,-441.5 526,-447.5 526,-453.5 526,-453.5 526,-482.5 526,-482.5 526,-488.5 520,-494.5 514,-494.5"/>
<text text-anchor="middle" x="482" y="-479.3" font-family="Times,serif" font-size="14.00">Algoritmos</text>
<text text-anchor="middle" x="482" y="-464.3" font-family="Times,serif" font-size="14.00">y Estructuras</text>
<text text-anchor="middle" x="482" y="-449.3" font-family="Times,serif" font-size="14.00">de Datos III</text>
</g>
<!-- 6&#45;&gt;9 -->
<g id="edge10" class="edge"><title>6&#45;&gt;9</title>
<path fill="none" stroke="black" d="M346.247,-468C370.924,-468 401.83,-468 427.817,-468"/>
<polygon fill="black" stroke="black" points="427.879,-471.5 437.879,-468 427.879,-464.5 427.879,-471.5"/>
</g>
<!-- 10 -->
<g id="node11" class="node"><title>10</title>
<path fill="none" stroke="black" d="M721,-377C721,-377 617,-377 617,-377 611,-377 605,-371 605,-365 605,-365 605,-353 605,-353 605,-347 611,-341 617,-341 617,-341 721,-341 721,-341 727,-341 733,-347 733,-353 733,-353 733,-365 733,-365 733,-371 727,-377 721,-377"/>
<text text-anchor="middle" x="669" y="-355.3" font-family="Times,serif" font-size="14.00">Sistemas Operativos</text>
</g>
<!-- 6&#45;&gt;10 -->
<g id="edge11" class="edge"><title>6&#45;&gt;10</title>
<path fill="none" stroke="black" d="M346.116,-451.341C363.958,-444.89 384.831,-437.702 404,-432 472.399,-411.655 491.343,-413.458 560,-394 574.778,-389.812 590.567,-384.93 605.382,-380.165"/>
<polygon fill="black" stroke="black" points="606.524,-383.474 614.956,-377.06 604.364,-376.816 606.524,-383.474"/>
</g>
<!-- 25 -->
<g id="node26" class="node"><title>25</title>
<path fill="none" stroke="#000080" d="M516.5,-565.5C516.5,-565.5 447.5,-565.5 447.5,-565.5 441.5,-565.5 435.5,-559.5 435.5,-553.5 435.5,-553.5 435.5,-524.5 435.5,-524.5 435.5,-518.5 441.5,-512.5 447.5,-512.5 447.5,-512.5 516.5,-512.5 516.5,-512.5 522.5,-512.5 528.5,-518.5 528.5,-524.5 528.5,-524.5 528.5,-553.5 528.5,-553.5 528.5,-559.5 522.5,-565.5 516.5,-565.5"/>
<text text-anchor="middle" x="482" y="-550.3" font-family="Times,serif" font-size="14.00" fill="#000080">Programación</text>
<text text-anchor="middle" x="482" y="-535.3" font-family="Times,serif" font-size="14.00" fill="#000080">Orientada</text>
<text text-anchor="middle" x="482" y="-520.3" font-family="Times,serif" font-size="14.00" fill="#000080">a Objetos (3)</text>
</g>
<!-- 6&#45;&gt;25 -->
<g id="edge30" class="edge"><title>6&#45;&gt;25</title>
<path fill="none" stroke="#000080" d="M346.247,-485.551C370.299,-495.091 400.268,-506.978 425.832,-517.118"/>
<polygon fill="#000080" stroke="#000080" points="424.807,-520.476 435.393,-520.91 427.388,-513.97 424.807,-520.476"/>
</g>
<!-- 11 -->
<g id="node12" class="node"><title>11</title>
<path fill="none" stroke="black" d="M529,-385C529,-385 435,-385 435,-385 429,-385 423,-379 423,-373 423,-373 423,-359 423,-359 423,-353 429,-347 435,-347 435,-347 529,-347 529,-347 535,-347 541,-353 541,-359 541,-359 541,-373 541,-373 541,-379 535,-385 529,-385"/>
<text text-anchor="middle" x="482" y="-369.8" font-family="Times,serif" font-size="14.00">Organización</text>
<text text-anchor="middle" x="482" y="-354.8" font-family="Times,serif" font-size="14.00">del Computador II</text>
</g>
<!-- 7&#45;&gt;11 -->
<g id="edge12" class="edge"><title>7&#45;&gt;11</title>
<path fill="none" stroke="black" d="M357.656,-346.706C375.147,-349.442 394.662,-352.495 412.914,-355.35"/>
<polygon fill="black" stroke="black" points="412.482,-358.825 422.903,-356.912 413.564,-351.909 412.482,-358.825"/>
</g>
<!-- 20 -->
<g id="node21" class="node"><title>20</title>
<path fill="none" stroke="#000080" d="M532,-329C532,-329 432,-329 432,-329 426,-329 420,-323 420,-317 420,-317 420,-303 420,-303 420,-297 426,-291 432,-291 432,-291 532,-291 532,-291 538,-291 544,-297 544,-303 544,-303 544,-317 544,-317 544,-323 538,-329 532,-329"/>
<text text-anchor="middle" x="482" y="-313.8" font-family="Times,serif" font-size="14.00" fill="#000080">Diseño de Sistemas</text>
<text text-anchor="middle" x="482" y="-298.8" font-family="Times,serif" font-size="14.00" fill="#000080">con FPGA (3)</text>
</g>
<!-- 7&#45;&gt;20 -->
<g id="edge25" class="edge"><title>7&#45;&gt;20</title>
<path fill="none" stroke="#000080" d="M357.656,-329.294C374.127,-326.718 392.393,-323.86 409.709,-321.152"/>
<polygon fill="#000080" stroke="#000080" points="410.435,-324.581 419.774,-319.577 409.353,-317.665 410.435,-324.581"/>
</g>
<!-- 12 -->
<g id="node13" class="node"><title>12</title>
<path fill="none" stroke="black" d="M721,-852C721,-852 617,-852 617,-852 611,-852 605,-846 605,-840 605,-840 605,-828 605,-828 605,-822 611,-816 617,-816 617,-816 721,-816 721,-816 727,-816 733,-822 733,-828 733,-828 733,-840 733,-840 733,-846 727,-852 721,-852"/>
<text text-anchor="middle" x="669" y="-830.3" font-family="Times,serif" font-size="14.00">Teoría de Lenguajes</text>
</g>
<!-- 8&#45;&gt;12 -->
<g id="edge14" class="edge"><title>8&#45;&gt;12</title>
<path fill="none" stroke="black" d="M501.191,-733.002C522.436,-753.227 559.359,-785.97 596,-807 598.837,-808.628 601.79,-810.192 604.811,-811.689"/>
<polygon fill="black" stroke="black" points="603.489,-814.934 614.032,-815.976 606.44,-808.586 603.489,-814.934"/>
</g>
<!-- 13 -->
<g id="node14" class="node"><title>13</title>
<path fill="none" stroke="black" d="M712,-923.5C712,-923.5 626,-923.5 626,-923.5 620,-923.5 614,-917.5 614,-911.5 614,-911.5 614,-882.5 614,-882.5 614,-876.5 620,-870.5 626,-870.5 626,-870.5 712,-870.5 712,-870.5 718,-870.5 724,-876.5 724,-882.5 724,-882.5 724,-911.5 724,-911.5 724,-917.5 718,-923.5 712,-923.5"/>
<text text-anchor="middle" x="669" y="-908.3" font-family="Times,serif" font-size="14.00">Paradigmas</text>
<text text-anchor="middle" x="669" y="-893.3" font-family="Times,serif" font-size="14.00">de los Lenguajes</text>
<text text-anchor="middle" x="669" y="-878.3" font-family="Times,serif" font-size="14.00">de Programación</text>
</g>
<!-- 8&#45;&gt;13 -->
<g id="edge15" class="edge"><title>8&#45;&gt;13</title>
<path fill="none" stroke="black" d="M493.395,-733.288C511.159,-763.228 549.94,-823.149 596,-861 598.868,-863.357 601.916,-865.612 605.076,-867.762"/>
<polygon fill="black" stroke="black" points="603.335,-870.802 613.654,-873.202 607.083,-864.89 603.335,-870.802"/>
</g>
<!-- 17 -->
<g id="node18" class="node"><title>17</title>
<path fill="none" stroke="#000080" d="M707.5,-798C707.5,-798 630.5,-798 630.5,-798 624.5,-798 618.5,-792 618.5,-786 618.5,-786 618.5,-772 618.5,-772 618.5,-766 624.5,-760 630.5,-760 630.5,-760 707.5,-760 707.5,-760 713.5,-760 719.5,-766 719.5,-772 719.5,-772 719.5,-786 719.5,-786 719.5,-792 713.5,-798 707.5,-798"/>
<text text-anchor="middle" x="669" y="-782.8" font-family="Times,serif" font-size="14.00" fill="#000080">Aprendizaje</text>
<text text-anchor="middle" x="669" y="-767.8" font-family="Times,serif" font-size="14.00" fill="#000080">Automático (3)</text>
</g>
<!-- 8&#45;&gt;17 -->
<g id="edge22" class="edge"><title>8&#45;&gt;17</title>
<path fill="none" stroke="#000080" d="M535.519,-733.169C558.334,-741.061 585.167,-750.344 608.696,-758.484"/>
<polygon fill="#000080" stroke="#000080" points="607.62,-761.815 618.214,-761.777 609.908,-755.2 607.62,-761.815"/>
</g>
<!-- 18 -->
<g id="node19" class="node"><title>18</title>
<path fill="none" stroke="#000080" d="M704.5,-741.5C704.5,-741.5 633.5,-741.5 633.5,-741.5 627.5,-741.5 621.5,-735.5 621.5,-729.5 621.5,-729.5 621.5,-700.5 621.5,-700.5 621.5,-694.5 627.5,-688.5 633.5,-688.5 633.5,-688.5 704.5,-688.5 704.5,-688.5 710.5,-688.5 716.5,-694.5 716.5,-700.5 716.5,-700.5 716.5,-729.5 716.5,-729.5 716.5,-735.5 710.5,-741.5 704.5,-741.5"/>
<text text-anchor="middle" x="669" y="-726.3" font-family="Times,serif" font-size="14.00" fill="#000080">Combinatoria,</text>
<text text-anchor="middle" x="669" y="-711.3" font-family="Times,serif" font-size="14.00" fill="#000080">Complejidad</text>
<text text-anchor="middle" x="669" y="-696.3" font-family="Times,serif" font-size="14.00" fill="#000080">y Lógica (3)</text>
</g>
<!-- 8&#45;&gt;18 -->
<g id="edge23" class="edge"><title>8&#45;&gt;18</title>
<path fill="none" stroke="#000080" d="M560.117,-715C577.196,-715 594.995,-715 611.096,-715"/>
<polygon fill="#000080" stroke="#000080" points="611.407,-718.5 621.407,-715 611.407,-711.5 611.407,-718.5"/>
</g>
<!-- 28 -->
<g id="node29" class="node"><title>28</title>
<path fill="none" stroke="#000080" d="M709,-670.5C709,-670.5 629,-670.5 629,-670.5 623,-670.5 617,-664.5 617,-658.5 617,-658.5 617,-629.5 617,-629.5 617,-623.5 623,-617.5 629,-617.5 629,-617.5 709,-617.5 709,-617.5 715,-617.5 721,-623.5 721,-629.5 721,-629.5 721,-658.5 721,-658.5 721,-664.5 715,-670.5 709,-670.5"/>
<text text-anchor="middle" x="669" y="-655.3" font-family="Times,serif" font-size="14.00" fill="#000080">Computabilidad</text>
<text text-anchor="middle" x="669" y="-640.3" font-family="Times,serif" font-size="14.00" fill="#000080">y Teoría</text>
<text text-anchor="middle" x="669" y="-625.3" font-family="Times,serif" font-size="14.00" fill="#000080">de Modelos (2)</text>
</g>
<!-- 8&#45;&gt;28 -->
<g id="edge33" class="edge"><title>8&#45;&gt;28</title>
<path fill="none" stroke="#000080" d="M530.162,-696.9C553.609,-687.902 582.218,-676.922 607.284,-667.302"/>
<polygon fill="#000080" stroke="#000080" points="608.616,-670.539 616.698,-663.689 606.108,-664.004 608.616,-670.539"/>
</g>
<!-- 31 -->
<g id="node32" class="node"><title>31</title>
<path fill="none" stroke="#000080" d="M719,-599C719,-599 619,-599 619,-599 613,-599 607,-593 607,-587 607,-587 607,-573 607,-573 607,-567 613,-561 619,-561 619,-561 719,-561 719,-561 725,-561 731,-567 731,-573 731,-573 731,-587 731,-587 731,-593 725,-599 719,-599"/>
<text text-anchor="middle" x="669" y="-583.8" font-family="Times,serif" font-size="14.00" fill="#000080">Teoría de la</text>
<text text-anchor="middle" x="669" y="-568.8" font-family="Times,serif" font-size="14.00" fill="#000080">Computabilidad (3)</text>
</g>
<!-- 8&#45;&gt;31 -->
<g id="edge36" class="edge"><title>8&#45;&gt;31</title>
<path fill="none" stroke="#000080" d="M498.129,-696.84C518.353,-673.544 556.283,-633.151 596,-608 598.31,-606.537 600.71,-605.129 603.169,-603.777"/>
<polygon fill="#000080" stroke="#000080" points="604.966,-606.79 612.284,-599.128 601.785,-600.554 604.966,-606.79"/>
</g>
<!-- 14 -->
<g id="node15" class="node"><title>14</title>
<path fill="none" stroke="black" d="M702,-543C702,-543 636,-543 636,-543 630,-543 624,-537 624,-531 624,-531 624,-517 624,-517 624,-511 630,-505 636,-505 636,-505 702,-505 702,-505 708,-505 714,-511 714,-517 714,-517 714,-531 714,-531 714,-537 708,-543 702,-543"/>
<text text-anchor="middle" x="669" y="-527.8" font-family="Times,serif" font-size="14.00">Ingeniería</text>
<text text-anchor="middle" x="669" y="-512.8" font-family="Times,serif" font-size="14.00">de Software I</text>
</g>
<!-- 9&#45;&gt;14 -->
<g id="edge16" class="edge"><title>9&#45;&gt;14</title>
<path fill="none" stroke="black" d="M526.374,-481.13C552.646,-489.082 586.366,-499.289 614.312,-507.749"/>
<polygon fill="black" stroke="black" points="613.35,-511.114 623.935,-510.661 615.378,-504.414 613.35,-511.114"/>
</g>
<!-- 24 -->
<g id="node25" class="node"><title>24</title>
<path fill="none" stroke="#000080" d="M718,-431C718,-431 620,-431 620,-431 614,-431 608,-425 608,-419 608,-419 608,-407 608,-407 608,-401 614,-395 620,-395 620,-395 718,-395 718,-395 724,-395 730,-401 730,-407 730,-407 730,-419 730,-419 730,-425 724,-431 718,-431"/>
<text text-anchor="middle" x="669" y="-409.3" font-family="Times,serif" font-size="14.00" fill="#000080">Metaheurísticas (2)</text>
</g>
<!-- 9&#45;&gt;24 -->
<g id="edge29" class="edge"><title>9&#45;&gt;24</title>
<path fill="none" stroke="#000080" d="M526.374,-455.105C547.682,-448.77 573.888,-440.979 597.941,-433.828"/>
<polygon fill="#000080" stroke="#000080" points="599.153,-437.119 607.741,-430.915 597.158,-430.41 599.153,-437.119"/>
</g>
<!-- 26 -->
<g id="node27" class="node"><title>26</title>
<path fill="none" stroke="#000080" d="M729.5,-487C729.5,-487 608.5,-487 608.5,-487 602.5,-487 596.5,-481 596.5,-475 596.5,-475 596.5,-461 596.5,-461 596.5,-455 602.5,-449 608.5,-449 608.5,-449 729.5,-449 729.5,-449 735.5,-449 741.5,-455 741.5,-461 741.5,-461 741.5,-475 741.5,-475 741.5,-481 735.5,-487 729.5,-487"/>
<text text-anchor="middle" x="669" y="-471.8" font-family="Times,serif" font-size="14.00" fill="#000080">Seminario Avanzado</text>
<text text-anchor="middle" x="669" y="-456.8" font-family="Times,serif" font-size="14.00" fill="#000080">de Teoría de Grafos (2)</text>
</g>
<!-- 9&#45;&gt;26 -->
<g id="edge31" class="edge"><title>9&#45;&gt;26</title>
<path fill="none" stroke="#000080" d="M526.374,-468C544.271,-468 565.625,-468 586.255,-468"/>
<polygon fill="#000080" stroke="#000080" points="586.306,-471.5 596.306,-468 586.306,-464.5 586.306,-471.5"/>
</g>
<!-- 10&#45;&gt;5 -->
<g id="edge6" class="edge"><title>10&#45;&gt;5</title>
<path fill="none" stroke="black" d="M695.101,-340.959C728.838,-316.711 788.969,-273.491 827.098,-246.086"/>
<polygon fill="black" stroke="black" points="829.273,-248.833 835.351,-240.154 825.188,-243.149 829.273,-248.833"/>
</g>
<!-- 16 -->
<g id="node17" class="node"><title>16</title>
<path fill="none" stroke="black" d="M898.5,-571C898.5,-571 827.5,-571 827.5,-571 821.5,-571 815.5,-565 815.5,-559 815.5,-559 815.5,-545 815.5,-545 815.5,-539 821.5,-533 827.5,-533 827.5,-533 898.5,-533 898.5,-533 904.5,-533 910.5,-539 910.5,-545 910.5,-545 910.5,-559 910.5,-559 910.5,-565 904.5,-571 898.5,-571"/>
<text text-anchor="middle" x="863" y="-555.8" font-family="Times,serif" font-size="14.00">Ingeniería</text>
<text text-anchor="middle" x="863" y="-540.8" font-family="Times,serif" font-size="14.00">de Software II</text>
</g>
<!-- 10&#45;&gt;16 -->
<g id="edge18" class="edge"><title>10&#45;&gt;16</title>
<path fill="none" stroke="black" d="M731.671,-377.092C735.459,-379.676 738.961,-382.629 742,-386 784.44,-433.081 734.696,-477.713 778,-524 785.478,-531.993 795.294,-537.706 805.57,-541.788"/>
<polygon fill="black" stroke="black" points="804.487,-545.117 815.082,-545.098 806.787,-538.506 804.487,-545.117"/>
</g>
<!-- 15 -->
<g id="node16" class="node"><title>15</title>
<path fill="none" stroke="black" d="M901,-432C901,-432 825,-432 825,-432 819,-432 813,-426 813,-420 813,-420 813,-408 813,-408 813,-402 819,-396 825,-396 825,-396 901,-396 901,-396 907,-396 913,-402 913,-408 913,-408 913,-420 913,-420 913,-426 907,-432 901,-432"/>
<text text-anchor="middle" x="863" y="-410.3" font-family="Times,serif" font-size="14.00">Bases de Datos</text>
</g>
<!-- 10&#45;&gt;15 -->
<g id="edge21" class="edge"><title>10&#45;&gt;15</title>
<path fill="none" stroke="black" d="M732.868,-377.009C755.542,-383.504 781.026,-390.804 803.327,-397.193"/>
<polygon fill="black" stroke="black" points="802.422,-400.574 812.999,-399.963 804.35,-393.845 802.422,-400.574"/>
</g>
<!-- 11&#45;&gt;10 -->
<g id="edge13" class="edge"><title>11&#45;&gt;10</title>
<path fill="none" stroke="black" d="M541.028,-363.804C557.946,-363.164 576.661,-362.456 594.406,-361.785"/>
<polygon fill="black" stroke="black" points="594.86,-365.27 604.721,-361.394 594.595,-358.275 594.86,-365.27"/>
</g>
<!-- 13&#45;&gt;16 -->
<g id="edge20" class="edge"><title>13&#45;&gt;16</title>
<path fill="none" stroke="black" d="M724.248,-875.551C730.777,-871.406 736.918,-866.579 742,-861 817.883,-777.691 847.889,-641.043 857.803,-581.394"/>
<polygon fill="black" stroke="black" points="861.313,-581.608 859.427,-571.183 854.4,-580.509 861.313,-581.608"/>
</g>
<!-- 21 -->
<g id="node22" class="node"><title>21</title>
<path fill="none" stroke="#000080" d="M904,-923.5C904,-923.5 822,-923.5 822,-923.5 816,-923.5 810,-917.5 810,-911.5 810,-911.5 810,-882.5 810,-882.5 810,-876.5 816,-870.5 822,-870.5 822,-870.5 904,-870.5 904,-870.5 910,-870.5 916,-876.5 916,-882.5 916,-882.5 916,-911.5 916,-911.5 916,-917.5 910,-923.5 904,-923.5"/>
<text text-anchor="middle" x="863" y="-908.3" font-family="Times,serif" font-size="14.00" fill="#000080">Fundamentos</text>
<text text-anchor="middle" x="863" y="-893.3" font-family="Times,serif" font-size="14.00" fill="#000080">de Concurrencia</text>
<text text-anchor="middle" x="863" y="-878.3" font-family="Times,serif" font-size="14.00" fill="#000080">y Movilidad (3)</text>
</g>
<!-- 13&#45;&gt;21 -->
<g id="edge26" class="edge"><title>13&#45;&gt;21</title>
<path fill="none" stroke="#000080" d="M724.25,-897C747.731,-897 775.351,-897 799.67,-897"/>
<polygon fill="#000080" stroke="#000080" points="799.869,-900.5 809.869,-897 799.869,-893.5 799.869,-900.5"/>
</g>
<!-- 14&#45;&gt;15 -->
<g id="edge17" class="edge"><title>14&#45;&gt;15</title>
<path fill="none" stroke="black" d="M714.34,-509.091C723.709,-505.302 733.367,-500.897 742,-496 759.631,-485.999 761.458,-479.715 778,-468 792.646,-457.628 809.182,-446.815 823.685,-437.613"/>
<polygon fill="black" stroke="black" points="825.823,-440.403 832.417,-432.11 822.091,-434.481 825.823,-440.403"/>
</g>
<!-- 14&#45;&gt;16 -->
<g id="edge19" class="edge"><title>14&#45;&gt;16</title>
<path fill="none" stroke="black" d="M714.049,-530.424C741.185,-534.381 776.245,-539.494 805.425,-543.749"/>
<polygon fill="black" stroke="black" points="805.078,-547.236 815.478,-545.216 806.088,-540.309 805.078,-547.236"/>
</g>
<!-- 22 -->
<g id="node23" class="node"><title>22</title>
<path fill="none" stroke="#000080" d="M936,-515C936,-515 790,-515 790,-515 784,-515 778,-509 778,-503 778,-503 778,-489 778,-489 778,-483 784,-477 790,-477 790,-477 936,-477 936,-477 942,-477 948,-483 948,-489 948,-489 948,-503 948,-503 948,-509 942,-515 936,-515"/>
<text text-anchor="middle" x="863" y="-499.8" font-family="Times,serif" font-size="14.00" fill="#000080">Gestión de Proyectos</text>
<text text-anchor="middle" x="863" y="-484.8" font-family="Times,serif" font-size="14.00" fill="#000080">de Procesos de Software (3)</text>
</g>
<!-- 14&#45;&gt;22 -->
<g id="edge27" class="edge"><title>14&#45;&gt;22</title>
<path fill="none" stroke="#000080" d="M714.049,-517.576C730.096,-515.236 748.916,-512.491 767.651,-509.759"/>
<polygon fill="#000080" stroke="#000080" points="768.338,-513.196 777.728,-508.29 767.328,-506.269 768.338,-513.196"/>
</g>
<!-- 30 -->
<g id="node31" class="node"><title>30</title>
<path fill="none" stroke="#000080" d="M519,-52.5C519,-52.5 445,-52.5 445,-52.5 439,-52.5 433,-46.5 433,-40.5 433,-40.5 433,-11.5 433,-11.5 433,-5.5 439,0.5 445,0.5 445,0.5 519,0.5 519,0.5 525,0.5 531,-5.5 531,-11.5 531,-11.5 531,-40.5 531,-40.5 531,-46.5 525,-52.5 519,-52.5"/>
<text text-anchor="middle" x="482" y="-37.3" font-family="Times,serif" font-size="14.00" fill="#000080">Laboratorio</text>
<text text-anchor="middle" x="482" y="-22.3" font-family="Times,serif" font-size="14.00" fill="#000080">de Redes</text>
<text text-anchor="middle" x="482" y="-7.3" font-family="Times,serif" font-size="14.00" fill="#000080">Neuronales (3)</text>
</g>
<!-- 27&#45;&gt;30 -->
<g id="edge35" class="edge"><title>27&#45;&gt;30</title>
<path fill="none" stroke="#000080" d="M368.144,-29.1524C386.044,-28.6524 405.283,-28.115 422.715,-27.6281"/>
<polygon fill="#000080" stroke="#000080" points="422.849,-31.1258 432.747,-27.3478 422.653,-24.1285 422.849,-31.1258"/>
</g>
</g>
</svg>
