<?xml version="1.0" encoding="UTF-8" standalone="no"?>
<!DOCTYPE svg PUBLIC "-//W3C//DTD SVG 1.1//EN"
 "http://www.w3.org/Graphics/SVG/1.1/DTD/svg11.dtd">
<!-- Generated by graphviz version 2.30.0 (20130222.0013)
 -->
<!-- Title: %3 Pages: 1 -->
<svg width="1488pt" height="630pt"
 viewBox="0.00 0.00 1488.00 630.00" xmlns="http://www.w3.org/2000/svg" xmlns:xlink="http://www.w3.org/1999/xlink">
<g id="graph0" class="graph" transform="scale(1 1) rotate(0) translate(4 626)">
<title>%3</title>
<polygon fill="white" stroke="white" points="-4,5 -4,-626 1485,-626 1485,5 -4,5"/>
<!-- 0 -->
<g id="node1" class="node"><title>0</title>
<path fill="none" stroke="black" d="M59,-306C59,-306 15,-306 15,-306 9,-306 3,-300 3,-294 3,-294 3,-282 3,-282 3,-276 9,-270 15,-270 15,-270 59,-270 59,-270 65,-270 71,-276 71,-282 71,-282 71,-294 71,-294 71,-300 65,-306 59,-306"/>
<text text-anchor="middle" x="37" y="-284.3" font-family="Times,serif" font-size="14.00">Álgebra I</text>
</g>
<!-- 2 -->
<g id="node3" class="node"><title>2</title>
<path fill="none" stroke="black" d="M312,-306C312,-306 122,-306 122,-306 116,-306 110,-300 110,-294 110,-294 110,-282 110,-282 110,-276 116,-270 122,-270 122,-270 312,-270 312,-270 318,-270 324,-276 324,-282 324,-282 324,-294 324,-294 324,-300 318,-306 312,-306"/>
<text text-anchor="middle" x="217" y="-284.3" font-family="Times,serif" font-size="14.00">Algoritmos y Estructuras de Datos I</text>
</g>
<!-- 0&#45;&gt;2 -->
<g id="edge1" class="edge"><title>0&#45;&gt;2</title>
<path fill="none" stroke="black" d="M71.0633,-288C79.6728,-288 89.4567,-288 99.7813,-288"/>
<polygon fill="black" stroke="black" points="99.8253,-291.5 109.825,-288 99.8252,-284.5 99.8253,-291.5"/>
</g>
<!-- 1 -->
<g id="node2" class="node"><title>1</title>
<path fill="none" stroke="black" d="M62,-117C62,-117 12,-117 12,-117 6,-117 0,-111 0,-105 0,-105 0,-93 0,-93 0,-87 6,-81 12,-81 12,-81 62,-81 62,-81 68,-81 74,-87 74,-93 74,-93 74,-105 74,-105 74,-111 68,-117 62,-117"/>
<text text-anchor="middle" x="37" y="-95.3" font-family="Times,serif" font-size="14.00">Análisis II</text>
</g>
<!-- 4 -->
<g id="node5" class="node"><title>4</title>
<path fill="none" stroke="black" d="M284,-90C284,-90 150,-90 150,-90 144,-90 138,-84 138,-78 138,-78 138,-66 138,-66 138,-60 144,-54 150,-54 150,-54 284,-54 284,-54 290,-54 296,-60 296,-66 296,-66 296,-78 296,-78 296,-84 290,-90 284,-90"/>
<text text-anchor="middle" x="217" y="-68.3" font-family="Times,serif" font-size="14.00">Probabilidad y Estadistica</text>
</g>
<!-- 1&#45;&gt;4 -->
<g id="edge3" class="edge"><title>1&#45;&gt;4</title>
<path fill="none" stroke="black" d="M74.021,-93.5361C89.6787,-91.1611 108.776,-88.2643 127.823,-85.3751"/>
<polygon fill="black" stroke="black" points="128.399,-88.828 137.761,-83.8678 127.349,-81.9071 128.399,-88.828"/>
</g>
<!-- 5 -->
<g id="node6" class="node"><title>5</title>
<path fill="none" stroke="black" d="M296,-144C296,-144 138,-144 138,-144 132,-144 126,-138 126,-132 126,-132 126,-120 126,-120 126,-114 132,-108 138,-108 138,-108 296,-108 296,-108 302,-108 308,-114 308,-120 308,-120 308,-132 308,-132 308,-138 302,-144 296,-144"/>
<text text-anchor="middle" x="217" y="-122.3" font-family="Times,serif" font-size="14.00">Teoría de las Comunicaciones</text>
</g>
<!-- 1&#45;&gt;5 -->
<g id="edge4" class="edge"><title>1&#45;&gt;5</title>
<path fill="none" stroke="black" d="M74.021,-104.464C86.4375,-106.347 101.017,-108.559 116.019,-110.834"/>
<polygon fill="black" stroke="black" points="115.509,-114.297 125.92,-112.336 116.558,-107.376 115.509,-114.297"/>
</g>
<!-- 3 -->
<g id="node4" class="node"><title>3</title>
<path fill="none" stroke="black" d="M523,-144C523,-144 419,-144 419,-144 413,-144 407,-138 407,-132 407,-132 407,-120 407,-120 407,-114 413,-108 419,-108 419,-108 523,-108 523,-108 529,-108 535,-114 535,-120 535,-120 535,-132 535,-132 535,-138 529,-144 523,-144"/>
<text text-anchor="middle" x="471" y="-122.3" font-family="Times,serif" font-size="14.00">Métodos Númericos</text>
</g>
<!-- 2&#45;&gt;3 -->
<g id="edge2" class="edge"><title>2&#45;&gt;3</title>
<path fill="none" stroke="black" d="M246.418,-269.731C292.196,-240.302 382.256,-182.407 432.991,-149.792"/>
<polygon fill="black" stroke="black" points="435.167,-152.554 441.686,-144.202 431.382,-146.665 435.167,-152.554"/>
</g>
<!-- 6 -->
<g id="node7" class="node"><title>6</title>
<path fill="none" stroke="black" d="M569.5,-414C569.5,-414 372.5,-414 372.5,-414 366.5,-414 360.5,-408 360.5,-402 360.5,-402 360.5,-390 360.5,-390 360.5,-384 366.5,-378 372.5,-378 372.5,-378 569.5,-378 569.5,-378 575.5,-378 581.5,-384 581.5,-390 581.5,-390 581.5,-402 581.5,-402 581.5,-408 575.5,-414 569.5,-414"/>
<text text-anchor="middle" x="471" y="-392.3" font-family="Times,serif" font-size="14.00">Algoritmos y Estructudas de Datos II</text>
</g>
<!-- 2&#45;&gt;6 -->
<g id="edge6" class="edge"><title>2&#45;&gt;6</title>
<path fill="none" stroke="black" d="M260.179,-306.077C303.699,-324.728 371.634,-353.843 418.346,-373.863"/>
<polygon fill="black" stroke="black" points="417.113,-377.142 427.683,-377.864 419.871,-370.708 417.113,-377.142"/>
</g>
<!-- 7 -->
<g id="node8" class="node"><title>7</title>
<path fill="none" stroke="black" d="M554,-306C554,-306 388,-306 388,-306 382,-306 376,-300 376,-294 376,-294 376,-282 376,-282 376,-276 382,-270 388,-270 388,-270 554,-270 554,-270 560,-270 566,-276 566,-282 566,-282 566,-294 566,-294 566,-300 560,-306 554,-306"/>
<text text-anchor="middle" x="471" y="-284.3" font-family="Times,serif" font-size="14.00">Organización del Computador I</text>
</g>
<!-- 2&#45;&gt;7 -->
<g id="edge7" class="edge"><title>2&#45;&gt;7</title>
<path fill="none" stroke="black" d="M324.14,-288C337.86,-288 351.903,-288 365.595,-288"/>
<polygon fill="black" stroke="black" points="365.985,-291.5 375.985,-288 365.985,-284.5 365.985,-291.5"/>
</g>
<!-- 19 -->
<g id="node20" class="node"><title>19</title>
<path fill="none" stroke="blue" d="M834,-198C834,-198 630,-198 630,-198 624,-198 618,-192 618,-186 618,-186 618,-174 618,-174 618,-168 624,-162 630,-162 630,-162 834,-162 834,-162 840,-162 846,-168 846,-174 846,-174 846,-186 846,-186 846,-192 840,-198 834,-198"/>
<text text-anchor="middle" x="732" y="-176.3" font-family="Times,serif" font-size="14.00" fill="blue">Compresión de Imágenes Digitales (3)</text>
</g>
<!-- 3&#45;&gt;19 -->
<g id="edge22" class="edge"><title>3&#45;&gt;19</title>
<path fill="none" stroke="blue" d="M535.027,-139.141C564.881,-145.365 601.201,-152.938 634.424,-159.864"/>
<polygon fill="blue" stroke="blue" points="634.121,-163.376 644.625,-161.991 635.549,-156.524 634.121,-163.376"/>
</g>
<!-- 23 -->
<g id="node24" class="node"><title>23</title>
<path fill="none" stroke="blue" d="M827.5,-144C827.5,-144 636.5,-144 636.5,-144 630.5,-144 624.5,-138 624.5,-132 624.5,-132 624.5,-120 624.5,-120 624.5,-114 630.5,-108 636.5,-108 636.5,-108 827.5,-108 827.5,-108 833.5,-108 839.5,-114 839.5,-120 839.5,-120 839.5,-132 839.5,-132 839.5,-138 833.5,-144 827.5,-144"/>
<text text-anchor="middle" x="732" y="-122.3" font-family="Times,serif" font-size="14.00" fill="blue">Introducción de la Fotografía 3D (1)</text>
</g>
<!-- 3&#45;&gt;23 -->
<g id="edge26" class="edge"><title>3&#45;&gt;23</title>
<path fill="none" stroke="blue" d="M535.027,-126C558.965,-126 587.06,-126 614.383,-126"/>
<polygon fill="blue" stroke="blue" points="614.405,-129.5 624.405,-126 614.405,-122.5 614.405,-129.5"/>
</g>
<!-- 29 -->
<g id="node30" class="node"><title>29</title>
<path fill="none" stroke="blue" d="M790.5,-90C790.5,-90 673.5,-90 673.5,-90 667.5,-90 661.5,-84 661.5,-78 661.5,-78 661.5,-66 661.5,-66 661.5,-60 667.5,-54 673.5,-54 673.5,-54 790.5,-54 790.5,-54 796.5,-54 802.5,-60 802.5,-66 802.5,-66 802.5,-78 802.5,-78 802.5,-84 796.5,-90 790.5,-90"/>
<text text-anchor="middle" x="732" y="-68.3" font-family="Times,serif" font-size="14.00" fill="blue">Visión en Robótica (3)</text>
</g>
<!-- 3&#45;&gt;29 -->
<g id="edge32" class="edge"><title>3&#45;&gt;29</title>
<path fill="none" stroke="blue" d="M535.027,-112.859C570.078,-105.551 614.042,-96.3851 651.442,-88.5873"/>
<polygon fill="blue" stroke="blue" points="652.226,-91.9994 661.301,-86.5319 650.797,-85.1467 652.226,-91.9994"/>
</g>
<!-- 4&#45;&gt;3 -->
<g id="edge5" class="edge"><title>4&#45;&gt;3</title>
<path fill="none" stroke="black" d="M296.009,-88.7161C328.095,-95.5919 365.064,-103.514 396.65,-110.282"/>
<polygon fill="black" stroke="black" points="396.192,-113.763 406.703,-112.436 397.659,-106.919 396.192,-113.763"/>
</g>
<!-- 27 -->
<g id="node28" class="node"><title>27</title>
<path fill="none" stroke="blue" d="M526,-40C526,-40 416,-40 416,-40 410,-40 404,-34 404,-28 404,-28 404,-16 404,-16 404,-10 410,-4 416,-4 416,-4 526,-4 526,-4 532,-4 538,-10 538,-16 538,-16 538,-28 538,-28 538,-34 532,-40 526,-40"/>
<text text-anchor="middle" x="471" y="-18.3" font-family="Times,serif" font-size="14.00" fill="blue">Redes Neuronales (3)</text>
</g>
<!-- 4&#45;&gt;27 -->
<g id="edge30" class="edge"><title>4&#45;&gt;27</title>
<path fill="none" stroke="blue" d="M296.009,-56.5221C327.182,-50.3368 362.964,-43.2373 393.941,-37.0911"/>
<polygon fill="blue" stroke="blue" points="394.69,-40.5108 403.818,-35.1314 393.328,-33.6446 394.69,-40.5108"/>
</g>
<!-- 4&#45;&gt;29 -->
<g id="edge33" class="edge"><title>4&#45;&gt;29</title>
<path fill="none" stroke="blue" d="M296.193,-72C392.226,-72 554.26,-72 651.078,-72"/>
<polygon fill="blue" stroke="blue" points="651.106,-75.5001 661.106,-72 651.106,-68.5001 651.106,-75.5001"/>
</g>
<!-- 8 -->
<g id="node9" class="node"><title>8</title>
<path fill="none" stroke="black" d="M798,-306C798,-306 666,-306 666,-306 660,-306 654,-300 654,-294 654,-294 654,-282 654,-282 654,-276 660,-270 666,-270 666,-270 798,-270 798,-270 804,-270 810,-276 810,-282 810,-282 810,-294 810,-294 810,-300 804,-306 798,-306"/>
<text text-anchor="middle" x="732" y="-284.3" font-family="Times,serif" font-size="14.00">Lógica y Computabilidad</text>
</g>
<!-- 6&#45;&gt;8 -->
<g id="edge8" class="edge"><title>6&#45;&gt;8</title>
<path fill="none" stroke="black" d="M499.158,-377.966C527.678,-359.752 574.363,-331.952 618,-315 626.353,-311.755 635.211,-308.823 644.146,-306.193"/>
<polygon fill="black" stroke="black" points="645.176,-309.539 653.852,-303.458 643.277,-302.802 645.176,-309.539"/>
</g>
<!-- 9 -->
<g id="node10" class="node"><title>9</title>
<path fill="none" stroke="black" d="M831.5,-541C831.5,-541 632.5,-541 632.5,-541 626.5,-541 620.5,-535 620.5,-529 620.5,-529 620.5,-517 620.5,-517 620.5,-511 626.5,-505 632.5,-505 632.5,-505 831.5,-505 831.5,-505 837.5,-505 843.5,-511 843.5,-517 843.5,-517 843.5,-529 843.5,-529 843.5,-535 837.5,-541 831.5,-541"/>
<text text-anchor="middle" x="732" y="-519.3" font-family="Times,serif" font-size="14.00">Algoritmos y Estructuras de Datos III</text>
</g>
<!-- 6&#45;&gt;9 -->
<g id="edge9" class="edge"><title>6&#45;&gt;9</title>
<path fill="none" stroke="black" d="M508.833,-414.061C555.113,-436.754 634.55,-475.706 684.838,-500.365"/>
<polygon fill="black" stroke="black" points="683.355,-503.535 693.874,-504.796 686.437,-497.25 683.355,-503.535"/>
</g>
<!-- 10 -->
<g id="node11" class="node"><title>10</title>
<path fill="none" stroke="black" d="M1070,-460C1070,-460 966,-460 966,-460 960,-460 954,-454 954,-448 954,-448 954,-436 954,-436 954,-430 960,-424 966,-424 966,-424 1070,-424 1070,-424 1076,-424 1082,-430 1082,-436 1082,-436 1082,-448 1082,-448 1082,-454 1076,-460 1070,-460"/>
<text text-anchor="middle" x="1018" y="-438.3" font-family="Times,serif" font-size="14.00">Sistemas Operativos</text>
</g>
<!-- 6&#45;&gt;10 -->
<g id="edge10" class="edge"><title>6&#45;&gt;10</title>
<path fill="none" stroke="black" d="M558.561,-414.003C578.039,-417.496 598.667,-420.763 618,-423 731.069,-436.086 863.164,-440.202 943.411,-441.471"/>
<polygon fill="black" stroke="black" points="943.849,-444.978 953.899,-441.626 943.952,-437.979 943.849,-444.978"/>
</g>
<!-- 25 -->
<g id="node26" class="node"><title>25</title>
<path fill="none" stroke="blue" d="M832.5,-414C832.5,-414 631.5,-414 631.5,-414 625.5,-414 619.5,-408 619.5,-402 619.5,-402 619.5,-390 619.5,-390 619.5,-384 625.5,-378 631.5,-378 631.5,-378 832.5,-378 832.5,-378 838.5,-378 844.5,-384 844.5,-390 844.5,-390 844.5,-402 844.5,-402 844.5,-408 838.5,-414 832.5,-414"/>
<text text-anchor="middle" x="732" y="-392.3" font-family="Times,serif" font-size="14.00" fill="blue">Programación Orientada a Objetos (3)</text>
</g>
<!-- 6&#45;&gt;25 -->
<g id="edge28" class="edge"><title>6&#45;&gt;25</title>
<path fill="none" stroke="blue" d="M581.839,-396C590.855,-396 600.001,-396 609.096,-396"/>
<polygon fill="blue" stroke="blue" points="609.334,-399.5 619.334,-396 609.334,-392.5 609.334,-399.5"/>
</g>
<!-- 11 -->
<g id="node12" class="node"><title>11</title>
<path fill="none" stroke="black" d="M817,-360C817,-360 647,-360 647,-360 641,-360 635,-354 635,-348 635,-348 635,-336 635,-336 635,-330 641,-324 647,-324 647,-324 817,-324 817,-324 823,-324 829,-330 829,-336 829,-336 829,-348 829,-348 829,-354 823,-360 817,-360"/>
<text text-anchor="middle" x="732" y="-338.3" font-family="Times,serif" font-size="14.00">Organización del Computador II</text>
</g>
<!-- 7&#45;&gt;11 -->
<g id="edge11" class="edge"><title>7&#45;&gt;11</title>
<path fill="none" stroke="black" d="M558.603,-306.056C583.01,-311.145 609.709,-316.711 634.649,-321.911"/>
<polygon fill="black" stroke="black" points="633.974,-325.346 644.478,-323.961 635.403,-318.493 633.974,-325.346"/>
</g>
<!-- 20 -->
<g id="node21" class="node"><title>20</title>
<path fill="none" stroke="blue" d="M822.5,-252C822.5,-252 641.5,-252 641.5,-252 635.5,-252 629.5,-246 629.5,-240 629.5,-240 629.5,-228 629.5,-228 629.5,-222 635.5,-216 641.5,-216 641.5,-216 822.5,-216 822.5,-216 828.5,-216 834.5,-222 834.5,-228 834.5,-228 834.5,-240 834.5,-240 834.5,-246 828.5,-252 822.5,-252"/>
<text text-anchor="middle" x="732" y="-230.3" font-family="Times,serif" font-size="14.00" fill="blue">Diseño de Sistemas con FPGA (3)</text>
</g>
<!-- 7&#45;&gt;20 -->
<g id="edge23" class="edge"><title>7&#45;&gt;20</title>
<path fill="none" stroke="blue" d="M558.603,-269.944C583.01,-264.855 609.709,-259.289 634.649,-254.089"/>
<polygon fill="blue" stroke="blue" points="635.403,-257.507 644.478,-252.039 633.974,-250.654 635.403,-257.507"/>
</g>
<!-- 12 -->
<g id="node13" class="node"><title>12</title>
<path fill="none" stroke="black" d="M1070,-406C1070,-406 966,-406 966,-406 960,-406 954,-400 954,-394 954,-394 954,-382 954,-382 954,-376 960,-370 966,-370 966,-370 1070,-370 1070,-370 1076,-370 1082,-376 1082,-382 1082,-382 1082,-394 1082,-394 1082,-400 1076,-406 1070,-406"/>
<text text-anchor="middle" x="1018" y="-384.3" font-family="Times,serif" font-size="14.00">Teoría de Lenguajes</text>
</g>
<!-- 8&#45;&gt;12 -->
<g id="edge13" class="edge"><title>8&#45;&gt;12</title>
<path fill="none" stroke="black" d="M810.011,-299.014C822.642,-302.853 835.136,-308.027 846,-315 867.848,-329.024 859.896,-347.385 882,-361 900.447,-372.363 922.756,-379.064 943.879,-382.98"/>
<polygon fill="black" stroke="black" points="943.366,-386.442 953.806,-384.638 944.519,-379.538 943.366,-386.442"/>
</g>
<!-- 13 -->
<g id="node14" class="node"><title>13</title>
<path fill="none" stroke="black" d="M1142,-136C1142,-136 894,-136 894,-136 888,-136 882,-130 882,-124 882,-124 882,-112 882,-112 882,-106 888,-100 894,-100 894,-100 1142,-100 1142,-100 1148,-100 1154,-106 1154,-112 1154,-112 1154,-124 1154,-124 1154,-130 1148,-136 1142,-136"/>
<text text-anchor="middle" x="1018" y="-114.3" font-family="Times,serif" font-size="14.00">Paradigmas de los Lenguajes de Programación</text>
</g>
<!-- 8&#45;&gt;13 -->
<g id="edge14" class="edge"><title>8&#45;&gt;13</title>
<path fill="none" stroke="black" d="M810.113,-280.865C823.318,-276.669 835.985,-270.371 846,-261 885.416,-224.117 841.906,-181.144 882,-145 883.137,-143.975 884.302,-142.984 885.493,-142.026"/>
<polygon fill="black" stroke="black" points="887.585,-144.833 893.698,-136.179 883.523,-139.132 887.585,-144.833"/>
</g>
<!-- 17 -->
<g id="node18" class="node"><title>17</title>
<path fill="none" stroke="blue" d="M1091,-352C1091,-352 945,-352 945,-352 939,-352 933,-346 933,-340 933,-340 933,-328 933,-328 933,-322 939,-316 945,-316 945,-316 1091,-316 1091,-316 1097,-316 1103,-322 1103,-328 1103,-328 1103,-340 1103,-340 1103,-346 1097,-352 1091,-352"/>
<text text-anchor="middle" x="1018" y="-330.3" font-family="Times,serif" font-size="14.00" fill="blue">Aprendizaje Automático (3)</text>
</g>
<!-- 8&#45;&gt;17 -->
<g id="edge20" class="edge"><title>8&#45;&gt;17</title>
<path fill="none" stroke="blue" d="M810.229,-300.509C844.911,-306.126 886.154,-312.807 922.647,-318.717"/>
<polygon fill="blue" stroke="blue" points="922.374,-322.219 932.805,-320.363 923.493,-315.309 922.374,-322.219"/>
</g>
<!-- 18 -->
<g id="node19" class="node"><title>18</title>
<path fill="none" stroke="blue" d="M1126.5,-298C1126.5,-298 909.5,-298 909.5,-298 903.5,-298 897.5,-292 897.5,-286 897.5,-286 897.5,-274 897.5,-274 897.5,-268 903.5,-262 909.5,-262 909.5,-262 1126.5,-262 1126.5,-262 1132.5,-262 1138.5,-268 1138.5,-274 1138.5,-274 1138.5,-286 1138.5,-286 1138.5,-292 1132.5,-298 1126.5,-298"/>
<text text-anchor="middle" x="1018" y="-276.3" font-family="Times,serif" font-size="14.00" fill="blue">Combinatoria, Complejidad y Lógica (3)</text>
</g>
<!-- 8&#45;&gt;18 -->
<g id="edge21" class="edge"><title>8&#45;&gt;18</title>
<path fill="none" stroke="blue" d="M810.229,-285.825C834.042,-285.154 860.949,-284.396 887.287,-283.654"/>
<polygon fill="blue" stroke="blue" points="887.448,-287.151 897.346,-283.371 887.251,-280.154 887.448,-287.151"/>
</g>
<!-- 28 -->
<g id="node29" class="node"><title>28</title>
<path fill="none" stroke="blue" d="M1127,-244C1127,-244 909,-244 909,-244 903,-244 897,-238 897,-232 897,-232 897,-220 897,-220 897,-214 903,-208 909,-208 909,-208 1127,-208 1127,-208 1133,-208 1139,-214 1139,-220 1139,-220 1139,-232 1139,-232 1139,-238 1133,-244 1127,-244"/>
<text text-anchor="middle" x="1018" y="-222.3" font-family="Times,serif" font-size="14.00" fill="blue">Computabilidad y Teoría de Modelos (2)</text>
</g>
<!-- 8&#45;&gt;28 -->
<g id="edge31" class="edge"><title>8&#45;&gt;28</title>
<path fill="none" stroke="blue" d="M807.544,-269.976C831.302,-264.369 857.722,-258.278 882,-253 892.55,-250.706 903.581,-248.382 914.593,-246.108"/>
<polygon fill="blue" stroke="blue" points="915.595,-249.476 924.688,-244.037 914.188,-242.618 915.595,-249.476"/>
</g>
<!-- 31 -->
<g id="node32" class="node"><title>31</title>
<path fill="none" stroke="blue" d="M1102.5,-190C1102.5,-190 933.5,-190 933.5,-190 927.5,-190 921.5,-184 921.5,-178 921.5,-178 921.5,-166 921.5,-166 921.5,-160 927.5,-154 933.5,-154 933.5,-154 1102.5,-154 1102.5,-154 1108.5,-154 1114.5,-160 1114.5,-166 1114.5,-166 1114.5,-178 1114.5,-178 1114.5,-184 1108.5,-190 1102.5,-190"/>
<text text-anchor="middle" x="1018" y="-168.3" font-family="Times,serif" font-size="14.00" fill="blue">Teoría de la Computabilidad (3)</text>
</g>
<!-- 8&#45;&gt;31 -->
<g id="edge35" class="edge"><title>8&#45;&gt;31</title>
<path fill="none" stroke="blue" d="M810.278,-278.407C823.019,-274.418 835.481,-268.826 846,-261 871.565,-241.98 856.086,-217.542 882,-199 890.929,-192.611 901.001,-187.645 911.518,-183.798"/>
<polygon fill="blue" stroke="blue" points="912.885,-187.033 921.281,-180.571 910.688,-180.386 912.885,-187.033"/>
</g>
<!-- 14 -->
<g id="node15" class="node"><title>14</title>
<path fill="none" stroke="black" d="M1080.5,-514C1080.5,-514 955.5,-514 955.5,-514 949.5,-514 943.5,-508 943.5,-502 943.5,-502 943.5,-490 943.5,-490 943.5,-484 949.5,-478 955.5,-478 955.5,-478 1080.5,-478 1080.5,-478 1086.5,-478 1092.5,-484 1092.5,-490 1092.5,-490 1092.5,-502 1092.5,-502 1092.5,-508 1086.5,-514 1080.5,-514"/>
<text text-anchor="middle" x="1018" y="-492.3" font-family="Times,serif" font-size="14.00">Ingeniería de Software I</text>
</g>
<!-- 9&#45;&gt;14 -->
<g id="edge15" class="edge"><title>9&#45;&gt;14</title>
<path fill="none" stroke="black" d="M843.615,-512.484C873.438,-509.648 905.205,-506.628 933.291,-503.958"/>
<polygon fill="black" stroke="black" points="933.838,-507.422 943.462,-502.991 933.175,-500.454 933.838,-507.422"/>
</g>
<!-- 24 -->
<g id="node25" class="node"><title>24</title>
<path fill="none" stroke="blue" d="M1067,-622C1067,-622 969,-622 969,-622 963,-622 957,-616 957,-610 957,-610 957,-598 957,-598 957,-592 963,-586 969,-586 969,-586 1067,-586 1067,-586 1073,-586 1079,-592 1079,-598 1079,-598 1079,-610 1079,-610 1079,-616 1073,-622 1067,-622"/>
<text text-anchor="middle" x="1018" y="-600.3" font-family="Times,serif" font-size="14.00" fill="blue">Metaheurísticas (2)</text>
</g>
<!-- 9&#45;&gt;24 -->
<g id="edge27" class="edge"><title>9&#45;&gt;24</title>
<path fill="none" stroke="blue" d="M777.419,-541.086C806.747,-552.531 846.226,-567.001 882,-577 902.866,-582.832 925.881,-587.919 946.907,-592.058"/>
<polygon fill="blue" stroke="blue" points="946.248,-595.495 956.73,-593.952 947.574,-588.622 946.248,-595.495"/>
</g>
<!-- 26 -->
<g id="node27" class="node"><title>26</title>
<path fill="none" stroke="blue" d="M1137.5,-568C1137.5,-568 898.5,-568 898.5,-568 892.5,-568 886.5,-562 886.5,-556 886.5,-556 886.5,-544 886.5,-544 886.5,-538 892.5,-532 898.5,-532 898.5,-532 1137.5,-532 1137.5,-532 1143.5,-532 1149.5,-538 1149.5,-544 1149.5,-544 1149.5,-556 1149.5,-556 1149.5,-562 1143.5,-568 1137.5,-568"/>
<text text-anchor="middle" x="1018" y="-546.3" font-family="Times,serif" font-size="14.00" fill="blue">Seminario Avanzado de Teoría de Grafos (2)</text>
</g>
<!-- 9&#45;&gt;26 -->
<g id="edge29" class="edge"><title>9&#45;&gt;26</title>
<path fill="none" stroke="blue" d="M843.615,-533.516C854.347,-534.537 865.331,-535.581 876.304,-536.624"/>
<polygon fill="blue" stroke="blue" points="876.085,-540.119 886.371,-537.581 876.747,-533.15 876.085,-540.119"/>
</g>
<!-- 16 -->
<g id="node17" class="node"><title>16</title>
<path fill="none" stroke="black" d="M1399.5,-460C1399.5,-460 1270.5,-460 1270.5,-460 1264.5,-460 1258.5,-454 1258.5,-448 1258.5,-448 1258.5,-436 1258.5,-436 1258.5,-430 1264.5,-424 1270.5,-424 1270.5,-424 1399.5,-424 1399.5,-424 1405.5,-424 1411.5,-430 1411.5,-436 1411.5,-436 1411.5,-448 1411.5,-448 1411.5,-454 1405.5,-460 1399.5,-460"/>
<text text-anchor="middle" x="1335" y="-438.3" font-family="Times,serif" font-size="14.00">Ingeniería de Software II</text>
</g>
<!-- 10&#45;&gt;16 -->
<g id="edge17" class="edge"><title>10&#45;&gt;16</title>
<path fill="none" stroke="black" d="M1082.37,-442C1129.95,-442 1195.63,-442 1247.96,-442"/>
<polygon fill="black" stroke="black" points="1248.24,-445.5 1258.24,-442 1248.24,-438.5 1248.24,-445.5"/>
</g>
<!-- 11&#45;&gt;10 -->
<g id="edge12" class="edge"><title>11&#45;&gt;10</title>
<path fill="none" stroke="black" d="M829.236,-360.081C835.093,-362.667 840.738,-365.622 846,-369 867.848,-383.024 859.896,-401.385 882,-415 900.447,-426.363 922.756,-433.064 943.879,-436.98"/>
<polygon fill="black" stroke="black" points="943.366,-440.442 953.806,-438.638 944.519,-433.538 943.366,-440.442"/>
</g>
<!-- 13&#45;&gt;16 -->
<g id="edge19" class="edge"><title>13&#45;&gt;16</title>
<path fill="none" stroke="black" d="M1138.77,-136.056C1144.09,-138.671 1149.21,-141.637 1154,-145 1251.79,-213.588 1306.02,-353.879 1325.55,-413.825"/>
<polygon fill="black" stroke="black" points="1322.33,-415.25 1328.69,-423.72 1329,-413.13 1322.33,-415.25"/>
</g>
<!-- 21 -->
<g id="node22" class="node"><title>21</title>
<path fill="none" stroke="blue" d="M1460,-136C1460,-136 1210,-136 1210,-136 1204,-136 1198,-130 1198,-124 1198,-124 1198,-112 1198,-112 1198,-106 1204,-100 1210,-100 1210,-100 1460,-100 1460,-100 1466,-100 1472,-106 1472,-112 1472,-112 1472,-124 1472,-124 1472,-130 1466,-136 1460,-136"/>
<text text-anchor="middle" x="1335" y="-114.3" font-family="Times,serif" font-size="14.00" fill="blue">Fundamentos de Concurrencia y Movilidad (3)</text>
</g>
<!-- 13&#45;&gt;21 -->
<g id="edge24" class="edge"><title>13&#45;&gt;21</title>
<path fill="none" stroke="blue" d="M1154.42,-118C1165.46,-118 1176.65,-118 1187.77,-118"/>
<polygon fill="blue" stroke="blue" points="1187.95,-121.5 1197.95,-118 1187.95,-114.5 1187.95,-121.5"/>
</g>
<!-- 15 -->
<g id="node16" class="node"><title>15</title>
<path fill="none" stroke="black" d="M1373,-568C1373,-568 1297,-568 1297,-568 1291,-568 1285,-562 1285,-556 1285,-556 1285,-544 1285,-544 1285,-538 1291,-532 1297,-532 1297,-532 1373,-532 1373,-532 1379,-532 1385,-538 1385,-544 1385,-544 1385,-556 1385,-556 1385,-562 1379,-568 1373,-568"/>
<text text-anchor="middle" x="1335" y="-546.3" font-family="Times,serif" font-size="14.00">Bases de Datos</text>
</g>
<!-- 14&#45;&gt;15 -->
<g id="edge16" class="edge"><title>14&#45;&gt;15</title>
<path fill="none" stroke="black" d="M1092.85,-508.661C1148.26,-518.159 1223.12,-530.992 1274.66,-539.827"/>
<polygon fill="black" stroke="black" points="1274.2,-543.299 1284.64,-541.539 1275.38,-536.4 1274.2,-543.299"/>
</g>
<!-- 14&#45;&gt;16 -->
<g id="edge18" class="edge"><title>14&#45;&gt;16</title>
<path fill="none" stroke="black" d="M1092.85,-483.339C1139.47,-475.348 1199.85,-464.997 1248.53,-456.651"/>
<polygon fill="black" stroke="black" points="1249.16,-460.096 1258.42,-454.956 1247.97,-453.196 1249.16,-460.096"/>
</g>
<!-- 22 -->
<g id="node23" class="node"><title>22</title>
<path fill="none" stroke="blue" d="M1467.5,-514C1467.5,-514 1202.5,-514 1202.5,-514 1196.5,-514 1190.5,-508 1190.5,-502 1190.5,-502 1190.5,-490 1190.5,-490 1190.5,-484 1196.5,-478 1202.5,-478 1202.5,-478 1467.5,-478 1467.5,-478 1473.5,-478 1479.5,-484 1479.5,-490 1479.5,-490 1479.5,-502 1479.5,-502 1479.5,-508 1473.5,-514 1467.5,-514"/>
<text text-anchor="middle" x="1335" y="-492.3" font-family="Times,serif" font-size="14.00" fill="blue">Gestión de Proyectos de Procesos de Software (3)</text>
</g>
<!-- 14&#45;&gt;22 -->
<g id="edge25" class="edge"><title>14&#45;&gt;22</title>
<path fill="none" stroke="blue" d="M1092.85,-496C1119.08,-496 1149.65,-496 1180.06,-496"/>
<polygon fill="blue" stroke="blue" points="1180.35,-499.5 1190.35,-496 1180.35,-492.5 1180.35,-499.5"/>
</g>
<!-- 30 -->
<g id="node31" class="node"><title>30</title>
<path fill="none" stroke="blue" d="M829,-36C829,-36 635,-36 635,-36 629,-36 623,-30 623,-24 623,-24 623,-12 623,-12 623,-6 629,-0 635,-0 635,-0 829,-0 829,-0 835,-0 841,-6 841,-12 841,-12 841,-24 841,-24 841,-30 835,-36 829,-36"/>
<text text-anchor="middle" x="732" y="-14.3" font-family="Times,serif" font-size="14.00" fill="blue">Laboratorio de Redes Neuronales (3)</text>
</g>
<!-- 27&#45;&gt;30 -->
<g id="edge34" class="edge"><title>27&#45;&gt;30</title>
<path fill="none" stroke="blue" d="M538.027,-20.9803C560.784,-20.6288 587.016,-20.2237 612.66,-19.8276"/>
<polygon fill="blue" stroke="blue" points="612.886,-23.3247 622.831,-19.6706 612.778,-16.3255 612.886,-23.3247"/>
</g>
</g>
</svg>
